<?xml version="1.0" encoding="UTF-8" standalone="no"?>
<!-- Generator: Adobe Illustrator 27.5.0, SVG Export Plug-In . SVG Version: 6.00 Build 0)  -->

<svg
   version="1.1"
   id="Layer_1"
   x="0px"
   y="0px"
   viewBox="0 0 450 399.728"
   style="enable-background:new 0 0 450 399.728;"
   xml:space="preserve"
   sodipodi:docname="cpr.svg"
   inkscape:version="1.4 (e7c3feb100, 2024-10-09)"
   xmlns:inkscape="http://www.inkscape.org/namespaces/inkscape"
   xmlns:sodipodi="http://sodipodi.sourceforge.net/DTD/sodipodi-0.dtd"
   xmlns="http://www.w3.org/2000/svg"
   xmlns:svg="http://www.w3.org/2000/svg"><defs
   id="defs916" /><sodipodi:namedview
   id="namedview916"
   pagecolor="#ffffff"
   bordercolor="#000000"
   borderopacity="0.25"
   inkscape:showpageshadow="2"
   inkscape:pageopacity="0.0"
   inkscape:pagecheckerboard="0"
   inkscape:deskcolor="#d1d1d1"
   inkscape:zoom="1.523536"
   inkscape:cx="224.80598"
   inkscape:cy="199.20763"
   inkscape:window-width="1290"
   inkscape:window-height="795"
   inkscape:window-x="50"
   inkscape:window-y="32"
   inkscape:window-maximized="0"
   inkscape:current-layer="Layer_1" />

<g
   id="g71"
   transform="matrix(3.9609746,0,0,3.9609746,-1140.2363,-786.22189)">
	<path
   style="fill:#f2bf89"
   d="m 322.455,252.769 c 0.053,-0.397 0.517,-0.389 0.781,-0.306 0.465,0.146 1.279,0.265 2.169,0.423 0.193,0.078 0.376,0.105 0.571,0.174 0.162,0.058 0.362,0.129 0.538,0.223 0.136,0.169 0.224,0.307 0.377,0.529 -1.168,0.078 -2.916,-0.16 -3.492,-0.39 -0.273,-0.109 -0.991,-0.299 -0.944,-0.653 z"
   id="path31" />
	<path
   style="fill:#f2bf89"
   d="m 318.861,255.003 v 0.005 c 0,0.155 0.115,0.28 0.265,0.3 0.015,0.002 0.032,0.002 0.05,0.002 l 4.41,-0.614 1.827,0.251 c 1.237,0 2.542,-0.698 2.456,-1.931 l -0.002,-0.023 c 0,0.03 -0.067,0.037 -0.185,0.03 -0.18,-0.012 -0.474,-0.065 -0.822,-0.132 -0.842,-0.165 -1.983,-0.427 -2.475,-0.482 -0.04,-0.005 -0.077,-0.008 -0.117,-0.008 -0.122,0 -0.247,0.025 -0.362,0.07 l -0.807,0.315 -0.34,0.132 -1.099,0.427 c -0.075,0.03 -0.145,0.065 -0.21,0.11 l -1.719,0.824 -0.731,0.47 c -0.087,0.054 -0.139,0.152 -0.139,0.254 z"
   id="path32" />
	<g
   id="g53">
		<g
   id="g35">
			<path
   style="fill:#f2bf89"
   d="m 328.154,242.559 c 1.12,-4.58 6.988,-2.641 4.963,1.632 l -5.326,9.665 -3.12,-0.641 z"
   id="path33" />
			<path
   style="fill:#d99651"
   d="m 336.8,229.99 -1.354,6.232 -1.614,6.553 -4.848,-2.316 0.883,-5.238 1.207,-6.316 c 0.79,-4.149 6.567,-3.919 5.726,1.085 z"
   id="path34" />
			<path
   style="fill:#c48849"
   d="m 332.78,244.575 c 0.473,0.273 0.944,-0.442 1.229,-1.269 0.199,-0.972 0.545,-1.588 0.211,-1.735 l -5.071,-2.017 c -0.473,-0.214 -1.282,1.915 -0.929,1.999 z"
   id="path35" />
		</g>
		<path
   style="fill:#61483e"
   d="m 355.981,258.483 -1.009,3.423 0.369,0.767 c 0.212,-0.036 0.418,-0.04 0.616,-0.017 0.066,0.008 0.132,0.015 0.198,0.029 0.621,0.115 1.189,0.452 1.737,0.778 0.417,0.245 0.942,0.988 1.601,1.654 0.134,0.131 0.264,0.262 0.382,0.387 0.708,0.736 1.241,1.373 1.802,1.544 0.46,0.232 0.995,-0.101 1.711,-0.368 0.116,-0.031 0.191,-0.133 0.192,-0.246 0.009,-1.033 -0.404,-2.848 -1.147,-4.121 l -0.613,-1.063 -0.726,-1.256 -0.846,-1.46 c -0.026,-0.043 -0.048,-0.087 -0.074,-0.127 l -0.261,-0.517 -0.077,-0.144 -0.544,-1.045 c -0.109,-0.207 -0.239,-0.401 -0.395,-0.582 l -0.534,-0.614 c -0.039,-0.05 -0.102,-0.078 -0.164,-0.082 -0.112,-0.005 -0.801,0.432 -1.501,0.908 -0.713,0.483 -1.439,1.008 -1.58,1.149 l -0.02,0.02 c -0.081,0.072 -0.271,0.39 -0.587,0.723 -0.215,0.229 1.954,0.023 1.62,0.193 -0.05,0.026 -0.1,0.048 -0.15,0.067 z"
   id="path36" />
		<path
   style="fill:#785039"
   d="m 337.31,264.659 c 0.07,0.184 0.148,0.359 0.241,0.527 0,0 0.008,0.011 0.019,0.033 0.119,0.218 0.263,0.423 0.424,0.607 0.023,0.027 0.042,0.053 0.065,0.08 0.447,0.497 1.027,0.876 1.687,1.079 1.871,0.64 3.201,-0.311 3.892,-2.094 0.053,-0.133 0.099,-0.27 0.143,-0.411 0.072,-0.15 0.928,-2.104 1.985,-4.995 v -0.003 c 0.832,-2.292 1.79,-5.174 2.579,-8.226 0.152,-0.587 0.299,-1.181 0.436,-1.78 0.11,-0.479 0.214,-0.963 0.314,-1.447 0.033,-0.229 0.061,-0.443 0.078,-0.654 l 10e-4,-0.003 c 0.029,-0.314 0.041,-0.606 0.034,-0.879 -0.007,-0.413 -0.051,-0.777 -0.128,-1.1 -0.063,-0.26 -0.146,-0.493 -0.246,-0.698 -0.201,-0.414 -0.477,-0.725 -0.812,-0.951 -2.431,-1.645 -7.773,1.349 -7.773,1.349 -0.182,1.021 -0.344,1.931 -0.486,2.74 -0.027,0.137 -0.049,0.271 -0.072,0.401 -0.099,0.541 -0.185,1.041 -0.268,1.5 -0.955,5.413 -0.959,5.56 -1.949,11.192 -0.067,0.395 -0.143,0.819 -0.222,1.273 -0.255,0.865 -0.208,1.715 0.058,2.46 z"
   id="path37" />
		<path
   style="fill:#785039"
   d="m 337.898,265.484 c 0,0 0.01,0.01 0.023,0.03 0.072,0.081 0.28,0.326 0.499,0.547 0.026,0.024 0.049,0.047 0.075,0.071 0.095,0.094 0.193,0.178 0.274,0.239 0.757,0.551 1.707,0.824 2.699,0.706 9.474,-1.672 12.06,-1.411 14.578,-1.87 l 0.169,-1.975 0.097,-1.151 -0.07,-5.436 c 0,0 -5.556,0.926 -10.932,2.12 v 0.003 c -3.273,0.726 -6.024,1.526 -6.784,2.246 -0.02,0.02 -0.149,0.855 -0.285,1.797 -0.179,1.228 -0.366,2.639 -0.343,2.673 z"
   id="path38" />
		<path
   style="fill:#61483e"
   d="m 361.216,258.483 -1.009,3.423 0.369,0.767 c 0.212,-0.036 0.418,-0.04 0.616,-0.017 0.066,0.008 0.132,0.015 0.198,0.029 0.621,0.115 1.189,0.452 1.737,0.778 0.417,0.245 0.942,0.988 1.601,1.654 0.134,0.131 0.264,0.262 0.382,0.387 0.708,0.736 1.241,1.373 1.802,1.544 0.46,0.232 0.995,-0.101 1.711,-0.368 0.116,-0.031 0.191,-0.133 0.193,-0.246 0.009,-1.033 -0.404,-2.848 -1.147,-4.121 l -0.613,-1.063 -0.726,-1.256 -0.846,-1.46 c -0.026,-0.043 -0.048,-0.087 -0.074,-0.127 l -0.26,-0.517 -0.077,-0.144 -0.544,-1.045 c -0.109,-0.207 -0.239,-0.401 -0.395,-0.582 l -0.534,-0.614 c -0.039,-0.05 -0.102,-0.078 -0.164,-0.082 -0.113,-0.005 -0.801,0.432 -1.501,0.908 -0.713,0.483 -1.439,1.008 -1.581,1.149 l -0.02,0.02 c -0.081,0.072 -0.271,0.39 -0.587,0.723 -0.215,0.229 1.954,0.023 1.62,0.193 -0.051,0.026 -0.101,0.048 -0.151,0.067 z"
   id="path39" />
		<path
   style="fill:#8f6044"
   d="m 342.768,264.992 c 0.094,0.174 0.194,0.337 0.307,0.491 0,0 0.01,0.01 0.023,0.03 0.146,0.201 0.315,0.386 0.499,0.547 0.026,0.024 0.049,0.047 0.075,0.071 0.507,0.435 1.132,0.736 1.812,0.852 1.938,0.393 3.134,-0.721 3.589,-2.579 0.035,-0.139 0.064,-0.281 0.089,-0.426 0.052,-0.158 0.649,-2.206 1.324,-5.21 v -0.003 c 0.529,-2.38 1.107,-5.362 1.496,-8.489 0.075,-0.602 0.144,-1.21 0.203,-1.822 0.047,-0.49 0.088,-0.982 0.125,-1.475 0.004,-0.232 0.003,-0.447 -0.007,-0.659 v -0.003 c -0.012,-0.315 -0.037,-0.607 -0.08,-0.876 -0.06,-0.408 -0.151,-0.764 -0.269,-1.074 -0.096,-0.25 -0.208,-0.47 -0.335,-0.661 -0.252,-0.385 -0.566,-0.658 -0.928,-0.839 -2.623,-1.318 -7.534,2.341 -7.534,2.341 -0.049,1.036 -0.092,1.959 -0.128,2.78 -0.009,0.139 -0.014,0.275 -0.019,0.407 -0.028,0.549 -0.049,1.056 -0.072,1.523 -0.248,5.491 -0.234,5.637 -0.489,11.35 -0.016,0.401 -0.036,0.831 -0.056,1.291 -0.142,0.892 0.015,1.729 0.375,2.433 z"
   id="path40" />
		<path
   style="fill:#8f6044"
   d="m 343.075,265.484 c 0,0 0.01,0.01 0.023,0.03 0.072,0.081 0.28,0.326 0.499,0.547 0.026,0.024 0.049,0.047 0.075,0.071 0.095,0.094 0.193,0.178 0.275,0.239 0.757,0.551 1.706,0.824 2.699,0.706 9.474,-1.672 13.384,-1.72 15.902,-2.178 l -1.07,-8.253 c 0,0 -5.614,0.926 -10.991,2.12 v 0.003 c -3.273,0.726 -6.024,1.526 -6.784,2.246 -0.02,0.02 -0.149,0.855 -0.285,1.797 -0.179,1.227 -0.366,2.638 -0.343,2.672 z"
   id="path41" />
		<path
   style="fill:#f0bd87"
   d="m 332.215,225.173 c -0.949,1.249 -2,1.542 -2,1.542 l -4.058,-5.528 c 0.361,-0.249 2.11,-1.997 3.396,-3.322 l 3.128,3.312 0.438,0.459 c 0.027,0.001 0.055,0.002 0.082,0.012 0.541,0.104 -0.268,2.597 -0.986,3.525 z"
   id="path42" />
		<g
   id="g45">
			<path
   style="fill:#ffc990"
   d="m 331.024,219.221 c 0.4,0.678 -1.096,0.79 -1.732,1.292 -0.018,0.02 -0.037,0.035 -0.056,0.049 1.342,1.714 0.73,4.068 -0.211,5.033 -0.032,0.03 -0.062,0.06 -0.094,0.09 l -0.865,0.674 c -0.831,0.628 -1.898,-0.031 -2.429,-0.714 0,0 -0.052,-0.085 -0.135,-0.217 -0.135,-0.214 -0.351,-0.554 -0.556,-0.876 l -0.001,-0.003 c -0.176,-0.275 -0.345,-0.535 -0.45,-0.689 -0.032,-0.047 -0.057,-0.083 -0.076,-0.107 l -0.473,0.176 c -0.309,0.133 -0.664,-0.039 -0.747,-0.359 l -0.269,-1.272 -0.062,-0.288 c 0,0 -0.269,-0.141 -0.555,-0.346 -0.201,-0.297 -0.37,-0.589 -0.509,-0.878 -0.273,-0.559 -0.442,-1.099 -0.52,-1.616 -0.265,-1.733 0.495,-3.185 1.692,-4.131 0.719,-0.518 1.626,-1.251 2.709,-1.468 0.078,-0.015 0.154,-0.028 0.234,-0.037 1.172,-0.148 2.539,0.348 4.09,2.357 0.594,0.985 0.575,2.576 1.015,3.33 z"
   id="path43" />
			<path
   style="fill:#61483e"
   d="m 331.624,220.241 c -2.353,2.621 -3.088,-1.704 -3.088,-1.704 0,0 -0.657,0.483 -0.681,0.927 -0.329,0.287 -0.55,0.436 -0.821,0.672 -2.697,-3.396 -2.469,-4.575 -5.753,-0.963 -2.596,-0.958 0.202,-4.214 1.471,-5.104 2.235,-1.566 4.99,-1.443 6.657,0.488 0.972,1.124 1.576,1.707 2.215,5.684 z"
   id="path44" />
			<path
   style="fill:#ffc990"
   d="m 329.206,218.468 c 0.465,0.649 0.454,1.791 0.03,2.096 -0.424,0.304 -0.755,-0.256 -1.227,-0.9 -0.312,-0.426 -0.858,-0.959 -0.49,-1.428 0.323,-0.412 1.004,-0.72 1.687,0.232 z"
   id="path45" />
		</g>
		<path
   style="fill:#e69f56"
   d="m 349.406,245.817 c -0.036,0.025 -0.071,0.049 -0.107,0.077 -0.484,0.35 -1.02,0.689 -1.578,0.999 -2.618,1.453 -5.797,2.276 -7.156,0.782 -1.622,-1.784 -5.132,-7.094 -6.333,-9.003 -1.289,-2.03 -2.254,-3.882 -2.736,-5.014 v -0.003 c -0.008,-0.011 -0.014,-0.027 -0.019,-0.038 -1.083,-2.213 -1.269,-4.661 -1.288,-5.961 -0.005,-0.585 0.025,-0.944 0.025,-0.944 0.003,0.003 0.003,0.003 0.008,0.003 0.353,-0.191 0.922,-0.897 1.461,-1.792 0.616,-1.012 1.204,-2.265 1.439,-3.288 0,0 0.005,0.003 0.014,0.003 0.003,0.003 0.016,0 0.036,0.003 0.148,0.016 0.604,0.063 0.829,0.104 1.231,0.208 2.492,0.739 3.77,1.527 0.022,0.014 0.044,0.03 0.068,0.044 2.64,1.628 8.694,10.748 11.577,14.937 0.192,0.279 1.037,2.084 2.219,4.235 0.441,0.804 -0.604,2.128 -2.229,3.329 z"
   id="path46" />
		<path
   style="fill:#61483e"
   d="m 329.025,225.596 c -0.089,2.042 -3.505,2.27 -3.524,-0.167 -0.002,-0.253 -0.351,-0.554 -0.556,-0.876 l -10e-4,-0.003 c -0.243,0.105 -0.631,-0.503 -0.45,-0.689 0.057,-0.085 0.147,-0.141 0.234,-0.194 0.328,-0.195 0.675,-0.369 1.05,-0.46 0.371,-0.093 0.774,-0.098 1.133,0.038 0.458,0.171 0.805,0.551 1.119,0.924 0.337,0.399 0.663,0.809 0.917,1.265 0.03,0.049 0.058,0.103 0.078,0.162 z"
   id="path47" />
		<path
   style="fill:#ffc990"
   d="m 327.117,224.654 c 0.063,0.25 -0.041,0.592 -0.255,0.735 -0.213,0.146 -0.54,0.262 -0.752,0.116 -0.105,-0.075 -0.175,-0.29 -0.303,-0.273 -0.065,0.01 -0.237,0.14 -0.306,0.196 -0.135,-0.214 -0.351,-0.554 -0.556,-0.876 l -10e-4,-0.003 c 0.064,-0.043 0.132,-0.081 0.199,-0.115 0.244,-0.132 0.493,-0.256 0.76,-0.324 0.269,-0.068 0.559,-0.075 0.814,0.029 0.229,0.092 0.343,0.275 0.4,0.515 z"
   id="path48" />
		<path
   style="opacity:0.1;fill:#1d1d1b"
   d="m 349.472,245.784 -0.172,0.109 -1.578,0.999 c -2.618,1.453 -5.797,2.276 -7.156,0.782 -1.622,-1.784 -5.132,-7.094 -6.333,-9.003 l 1.491,-8.065 3.088,-1.792 -0.62,10.647 c 2.596,7.214 5.865,8.954 11.216,6.355 0.02,-0.01 0.042,-0.021 0.064,-0.032 z"
   id="path49" />
		<g
   id="g52">
			<path
   style="fill:#ffc990"
   d="m 329.5,242.438 c 1.316,-4.527 7.095,-2.336 4.888,1.845 l -5.739,9.426 -3.089,-0.775 z"
   id="path50" />
			<path
   style="fill:#e69f56"
   d="m 338.681,230.256 -1.623,6.167 -1.896,6.478 -4.743,-2.523 1.108,-5.195 1.479,-6.258 c 0.97,-4.113 6.732,-3.632 5.675,1.331 z"
   id="path51" />
			<path
   style="fill:#d1914e"
   d="m 334.034,244.652 c 0.461,0.293 0.962,-0.401 1.282,-1.214 0.241,-0.962 0.613,-1.563 0.285,-1.724 l -4.979,-2.234 c -0.464,-0.234 -1.363,1.858 -1.014,1.957 z"
   id="path52" />
		</g>
	</g>
	<path
   style="opacity:0.1;fill:#131313"
   d="m 390.63,267.316 c 0,1.046 -0.7,1.895 -1.563,1.895 h -91.75 c -0.863,0 -1.563,-0.848 -1.563,-1.895 v 0 c 0,-1.046 0.7,-1.895 1.563,-1.895 h 91.75 c 0.863,0 1.563,0.848 1.563,1.895 z"
   id="path53" />
	<g
   id="g68">
		<path
   style="fill:#2e2e2d"
   d="m 388.814,267.002 -1.606,0.197 c -0.449,0.052 -0.867,0.092 -1.246,0.117 -0.822,0.055 -1.481,0.047 -1.97,0.008 -0.662,-0.053 -1.019,-0.167 -1.066,-0.272 -0.13,-0.282 -0.232,-0.647 -0.3,-1.064 -0.245,-1.511 -0.03,-3.716 1.044,-5.269 0.05,-0.072 0.097,-0.145 0.145,-0.22 1.001,-1.613 1.431,-4.021 1.883,-4.665 0.679,-0.966 2.38,-0.787 2.38,-0.787 l 0.025,0.352 0.539,7.629 -0.777,1.496 0.842,0.295 0.02,0.415 z"
   id="path54" />
		<path
   style="fill:#006080"
   d="m 348.466,265.702 c -2.85,2.289 -7.845,1.998 -10.301,0.042 -0.539,-3.381 -0.682,-6.5 0,-9.076 3.854,-0.184 9.303,0.879 12.195,1.331 z"
   id="path55" />
		<path
   style="fill:#3c3c3b"
   d="m 389.569,263.329 -0.917,1.416 0.809,0.375 -0.102,2.183 -1.618,0.04 c -0.672,0.015 -1.266,0.005 -1.778,-0.025 -0.827,-0.048 -1.446,-0.142 -1.858,-0.247 -0.382,-0.097 -0.584,-0.202 -0.614,-0.285 -0.082,-0.24 -0.142,-0.532 -0.175,-0.862 -0.157,-1.533 0.247,-3.856 1.526,-5.372 1.256,-1.491 1.953,-4.04 2.49,-4.665 0.207,-0.242 0.482,-0.395 0.772,-0.487 0.782,-0.25 1.673,-0.07 1.673,-0.07 z"
   id="path56" />
		<g
   id="g60">
			<polygon
   style="fill:#f0b87d"
   points="306.588,265.093 306.55,263.361 306.547,263.241 306.525,262.24 306.47,259.769 308.103,259.545 309.737,259.318 310.721,259.181 312.117,258.99 312.117,265.443 309.417,265.528 309.414,265.528 308.864,265.547 306.599,265.618 306.588,265.18 "
   id="polygon56" />
			<g
   id="g59">
				<path
   style="fill:#f0b87d"
   d="m 308.604,255.995 c 0.454,0.155 0.828,0.463 0.954,0.982 l 0.258,1.138 c 0.055,0.375 0.02,0.83 -0.103,1.302 0.003,0.004 0.003,0.004 0,0.003 -0.359,1.297 -1.39,2.731 -3.088,3.112 0.006,0.02 0.01,0.04 0.013,0.06 -10e-4,0.006 0.001,0.013 0.004,0.017 0.18,0.84 1.339,1.937 0.553,2.229 -0.87,0.324 -1.922,1.646 -3.072,2.058 -5.273,1.231 -5.842,-2.086 -6.358,-4.027 -0.347,-1.583 0.002,-3.286 1.383,-4.534 0.407,-0.371 0.909,-0.704 1.512,-0.981 0.312,-0.143 0.643,-0.268 1.009,-0.383 0.371,0.028 0.692,0.09 0.692,0.09 l 0.242,-0.194 1.078,-0.864 c 0.284,-0.21 0.689,-0.111 0.854,0.204 l 0.271,0.462 c 0.351,-0.085 2.276,-0.736 2.276,-0.736 0.461,-0.106 1.038,-0.111 1.522,0.062 z"
   id="path57" />
				<path
   style="fill:#3c3c3b"
   d="m 308.864,265.547 c -0.101,0.673 -0.706,1.083 -1.518,1.335 -0.137,0.047 -0.285,0.082 -0.435,0.118 -1.464,0.339 -3.365,0.284 -4.295,0.326 -0.112,0.003 -0.222,0.008 -0.331,0.011 -0.079,0.003 -0.156,0.006 -0.232,0.006 -2.733,0.057 -3.855,-0.465 -4.569,-1.91 -0.252,-0.517 -0.454,-1.149 -0.659,-1.915 -0.599,-2.257 -0.211,-4.166 0.646,-4.96 0.454,-0.427 1.039,-0.539 1.677,-0.227 v 0.003 c 0.016,0.268 0.033,0.517 0.055,0.75 0.41,4.284 2.219,2.979 6.486,2.049 0.181,0.509 0.181,0.509 0.339,1.081 -0.005,0.014 -0.016,0.025 -0.027,0.038 -0.306,0.399 -1.247,1.412 -1.308,1.474 0.057,-0.025 0.927,-0.43 1.855,-0.484 0.027,-0.003 0.052,-0.003 0.079,-0.003 h 0.003 c 0.09,-0.005 0.178,-0.005 0.268,0.003 h 0.003 c 0.441,0.019 0.87,0.134 1.215,0.427 l 0.003,0.003 c 0.107,0.087 0.208,0.194 0.295,0.317 0.25,0.352 0.417,0.855 0.45,1.558 z"
   id="path58" />
				<path
   style="fill:#f0b87d"
   d="m 305.36,264.241 c 0.819,-0.222 1.578,-1.168 1.433,-1.704 -0.145,-0.535 -0.793,-0.297 -1.614,-0.083 -0.543,0.141 -1.35,0.212 -1.363,0.846 -0.011,0.555 0.343,1.266 1.544,0.941 z"
   id="path59" />
			</g>
			<path
   style="opacity:0.1;fill:#050504"
   d="m 308.604,255.995 c 0.454,0.155 0.828,0.463 0.954,0.982 l 0.258,1.138 c 0.055,0.375 0.02,0.83 -0.103,1.302 0.003,0.004 0.003,0.004 0,0.003 -0.374,0.441 -0.872,0.755 -1.405,0.982 -0.547,0.235 -1.131,0.379 -1.709,0.524 0.497,-0.184 0.918,-0.54 1.234,-0.965 0.318,-0.421 0.535,-0.914 0.701,-1.415 0.166,-0.501 0.281,-1.024 0.27,-1.55 -0.006,-0.341 -0.07,-0.685 -0.2,-1.001 z"
   id="path60" />
		</g>
		<path
   style="fill:#e94e1b"
   d="m 339.295,264.149 c -0.191,0.643 -0.408,1.291 -0.643,1.94 -0.016,0.046 -0.033,0.093 -0.049,0.142 -0.129,0.347 -0.26,0.698 -0.397,1.042 h -0.315 c -1.22,-0.008 -4.853,0.008 -9.088,0.033 -0.282,0.003 -0.564,0.003 -0.848,0.005 -1.332,0.011 -2.714,0.019 -4.084,0.03 -0.495,0.003 -0.99,0.005 -1.48,0.011 -5.329,0.041 -8.07,0.547 -10.869,-0.958 0,0 -0.003,0 -0.003,-0.003 -0.246,-0.129 -0.492,-0.276 -0.741,-0.44 l -0.189,-0.057 -1.174,-0.367 h -0.003 c 0.088,-0.348 0.167,-0.698 0.243,-1.051 l 0.107,-0.525 v -0.003 c 0.301,-1.51 0.522,-2.985 0.796,-4.15 0.052,-0.216 0.104,-0.424 0.161,-0.616 v -0.003 c 0.019,-0.068 0.038,-0.129 0.057,-0.192 0.178,-0.369 1.187,-0.911 1.187,-0.911 0,0 1.25,-1.239 3.723,-2.175 1.143,-0.432 2.55,-0.799 4.216,-0.944 0.279,-0.027 0.566,-0.044 0.862,-0.055 0.594,-0.025 1.22,-0.019 1.877,0.016 3.061,-0.692 12.953,-1.015 17.407,1.51 0.09,0.049 0.175,0.101 0.26,0.153 0.003,0.03 0.008,0.06 0.011,0.09 0.251,2.176 -0.2,4.783 -1.024,7.478 z"
   id="path61" />
		<path
   style="fill:#cc4418"
   d="m 329.53,262.582 -0.587,3.813 -0.14,0.911 -0.012,0.08 -0.462,-0.005 h -0.008 l -4.45,-0.04 -7.407,-0.07 c -2.283,-0.402 -3.149,-1.516 -3.466,-2.447 -0.265,-0.782 -0.145,-1.433 -0.145,-1.433 0.512,-2.397 3.384,-2.525 4.972,-2.243 2.844,0.502 10.391,1.296 11.552,1.418 0.003,0 0.005,0 0.005,0 0.057,0.005 0.097,0.01 0.122,0.013 0.008,0 0.018,0 0.026,0.003 z"
   id="path62" />
		<path
   style="fill:#006080"
   d="m 364.429,258.209 -0.517,6.643 -0.19,2.45 c -0.182,0.003 -0.36,0.008 -0.539,0.01 -3.928,0.082 -7.242,0.265 -10.956,0.01 -1.686,-0.115 -3.454,-0.32 -5.396,-0.667 -0.554,-0.097 -1.126,-0.207 -1.713,-0.33 l -0.025,-0.182 -0.165,-1.239 -0.894,-6.695 c 1.855,-0.195 3.576,-0.322 5.179,-0.4 6.608,-0.314 11.225,0.225 15.216,0.4 z"
   id="path63" />
		<path
   style="fill:#006080"
   d="m 384.841,260.552 -0.597,5.277 -0.14,1.241 -0.03,0.255 h -0.082 c -10.154,0.075 -14.254,0.152 -20.812,0 l 0.003,-0.013 0.335,-2.442 0.911,-6.66 c 6.565,1.191 13.023,1.94 19.386,2.29 0.342,0.017 0.684,0.034 1.026,0.052 z"
   id="path64" />
		<path
   style="fill:#ffc990"
   d="m 349.47,264.47 c -0.053,-0.397 -0.517,-0.389 -0.781,-0.306 -0.465,0.146 -1.279,0.265 -2.169,0.423 -0.193,0.078 -0.376,0.105 -0.571,0.174 -0.163,0.058 -0.362,0.129 -0.538,0.223 -0.136,0.169 -0.224,0.307 -0.377,0.529 1.168,0.078 2.916,-0.16 3.492,-0.39 0.274,-0.108 0.992,-0.298 0.944,-0.653 z"
   id="path65" />
		<path
   style="fill:#ffc990"
   d="m 352.492,267.017 v 0.005 c 0,0.155 -0.115,0.28 -0.265,0.3 -0.015,0.003 -0.032,0.003 -0.05,0.003 l -4.368,-0.013 h -4.048 v -0.005 l 0.09,-1.291 0.07,-1.009 c 0,0.03 0.067,0.038 0.185,0.03 0.18,-0.013 0.474,-0.065 0.822,-0.132 0.841,-0.165 1.983,-0.427 2.475,-0.482 0.04,-0.005 0.077,-0.007 0.117,-0.007 0.122,0 0.247,0.025 0.362,0.07 l 0.807,0.315 0.34,0.132 1.099,0.427 c 0.075,0.03 0.145,0.065 0.21,0.11 l 1.284,0.824 0.732,0.469 c 0.085,0.054 0.138,0.152 0.138,0.254 z"
   id="path66" />
		<path
   style="fill:#cc4418"
   d="m 340.905,264.408 c -0.12,0.667 -0.24,1.269 -0.35,1.751 -0.065,0.282 -0.127,0.524 -0.185,0.712 -0.087,0.29 -0.165,0.454 -0.222,0.454 h -2.272 c 0.005,-0.018 0.012,-0.035 0.017,-0.053 0.122,-0.337 0.235,-0.679 0.34,-1.029 0.04,-0.122 0.077,-0.245 0.11,-0.367 0.175,-0.587 0.327,-1.189 0.467,-1.803 0.539,-2.348 0.874,-4.865 1.211,-7.409 0.01,-0.077 0.02,-0.155 0.03,-0.232 l 1.723,0.127 c 0.038,0.005 0.063,0.082 0.075,0.222 0.079,0.961 -0.438,4.852 -0.944,7.627 z"
   id="path67" />
		<path
   style="fill:#cc4418"
   d="m 344.119,264.924 -0.013,0.112 -0.105,0.971 -0.142,1.294 v 0.01 l -0.003,0.013 h -12.973 c -1.061,0.087 -1.788,0.132 -2.555,0.057 h -0.008 c -0.087,-0.008 -0.177,-0.018 -0.27,-0.03 -0.035,-0.005 -0.067,-0.017 -0.095,-0.04 -0.165,-0.112 -0.247,-0.467 -0.25,-0.931 -0.02,-1.396 0.632,-3.806 1.671,-3.813 0.003,0 0.005,0 0.005,0 0.057,0.005 0.097,0.01 0.122,0.013 0.008,0 0.018,0 0.025,0.003 l 8.386,1.346 0.894,0.145 0.487,0.077 1.608,0.257 z"
   id="path68" />
	</g>
	<path
   style="opacity:0.1;fill:#1d1d1b"
   d="m 389.461,265.12 -0.101,2.18 -1.62,0.041 c -0.673,0.016 -1.267,0.005 -1.778,-0.025 -0.821,0.055 -1.48,0.047 -1.97,0.008 -10.155,0.074 -14.255,0.15 -20.813,0 l 0.003,-0.014 c -3.928,0.082 -7.241,0.265 -10.956,0.011 -0.014,0.003 -0.033,0.003 -0.049,0.003 l -4.369,-0.014 h -3.95 l -0.003,0.014 h -12.972 c -1.061,0.087 -1.789,0.131 -2.555,0.057 h -0.008 l -4.448,-0.041 c -0.495,0.003 -0.99,0.005 -1.48,0.011 -5.329,0.041 -8.07,0.547 -10.869,-0.958 0,0 -0.003,0 -0.003,-0.003 -0.246,-0.129 -0.492,-0.276 -0.741,-0.44 l -0.189,-0.057 -1.174,-0.367 h -0.003 l -0.55,0.019 c -0.101,0.673 -0.706,1.083 -1.518,1.335 -0.137,0.047 -0.285,0.082 -0.435,0.118 -1.464,0.339 -3.365,0.284 -4.295,0.326 -0.112,0.003 -0.222,0.008 -0.331,0.011 -0.079,0.003 -0.156,0.006 -0.232,0.006 -2.733,0.057 -3.855,-0.465 -4.569,-1.91 0.487,0.151 0.971,0.279 1.453,0.378 h 0.003 c 1.945,0.419 3.835,0.408 5.649,-0.191 0,0 0.93,-0.096 2,-0.525 0.26,-0.104 0.531,-0.23 0.796,-0.378 0.003,0 0.003,-0.003 0.003,-0.003 1.477,-0.033 2.323,-1.176 2.509,-1.444 0.014,0.555 2.818,1.606 3.102,1.557 4.18,1.039 9.178,1.464 14.71,1.557 0.41,0.005 0.821,0.011 1.236,0.014 2.966,0.022 6.079,-0.041 9.29,-0.153 0.12,-0.003 0.243,-0.006 0.369,-0.011 0.087,-0.003 0.175,-0.005 0.265,-0.011 0.561,-0.019 1.122,-0.038 1.688,-0.063 1.089,-0.044 2.186,-0.09 3.294,-0.142 0.052,-0.003 0.101,-0.003 0.15,-0.005 0.361,0.052 0.725,0.096 1.092,0.134 0.793,0.087 1.603,0.145 2.437,0.178 h 0.003 c 1.302,0.049 2.656,0.038 4.087,-0.027 3.469,-0.17 7.362,-0.673 11.897,-1.425 0.088,-0.014 0.178,-0.03 0.268,-0.044 0.041,0.011 0.085,0.019 0.129,0.027 6.218,1.422 12.012,1.74 18.712,1.135 0.23,-0.019 0.46,-0.038 0.689,-0.063 0.309,-0.027 0.618,-0.06 0.93,-0.096 1.447,-0.159 2.935,-0.358 4.484,-0.594 0.241,-0.039 0.487,-0.077 0.733,-0.116 z"
   id="path69" />
	<path
   style="fill:#ffc990"
   d="m 323.105,252.769 c 0.053,-0.397 0.517,-0.389 0.781,-0.306 0.465,0.146 1.279,0.265 2.169,0.423 0.193,0.078 0.376,0.105 0.571,0.174 0.162,0.058 0.362,0.129 0.538,0.223 0.136,0.169 0.224,0.307 0.377,0.529 -1.168,0.078 -2.916,-0.16 -3.492,-0.39 -0.274,-0.109 -0.992,-0.299 -0.944,-0.653 z"
   id="path70" />
	<path
   style="fill:#ffc990"
   d="m 319.647,255.315 v 0.005 c 0,0.155 0.115,0.28 0.265,0.3 0.015,0.002 0.032,0.002 0.05,0.002 l 4.41,-0.614 1.827,0.251 c 1.237,0 2.542,-0.698 2.456,-1.932 l -0.002,-0.023 c 0,0.03 -0.067,0.037 -0.185,0.03 -0.18,-0.013 -0.474,-0.065 -0.822,-0.132 -0.842,-0.165 -1.983,-0.427 -2.475,-0.482 -0.04,-0.005 -0.077,-0.007 -0.117,-0.007 -0.122,0 -0.247,0.025 -0.362,0.07 l -0.807,0.315 -0.34,0.132 -1.099,0.427 c -0.075,0.03 -0.145,0.065 -0.21,0.11 l -1.719,0.824 -0.732,0.469 c -0.085,0.055 -0.138,0.153 -0.138,0.255 z"
   id="path71" />
</g>













</svg>
