<?xml version="1.0" encoding="UTF-8" standalone="no"?>
<!-- Generator: Adobe Illustrator 27.5.0, SVG Export Plug-In . SVG Version: 6.00 Build 0)  -->

<svg
   version="1.1"
   x="0px"
   y="0px"
   viewBox="0 0 500 500"
   style="enable-background:new 0 0 500 500;"
   xml:space="preserve"
   id="svg137"
   sodipodi:docname="people.svg"
   inkscape:version="1.4 (e7c3feb100, 2024-10-09)"
   xmlns:inkscape="http://www.inkscape.org/namespaces/inkscape"
   xmlns:sodipodi="http://sodipodi.sourceforge.net/DTD/sodipodi-0.dtd"
   xmlns="http://www.w3.org/2000/svg"
   xmlns:svg="http://www.w3.org/2000/svg"><defs
   id="defs137" /><sodipodi:namedview
   id="namedview137"
   pagecolor="#ffffff"
   bordercolor="#000000"
   borderopacity="0.25"
   inkscape:showpageshadow="2"
   inkscape:pageopacity="0.0"
   inkscape:pagecheckerboard="0"
   inkscape:deskcolor="#d1d1d1"
   inkscape:zoom="0.94943511"
   inkscape:cx="250.14874"
   inkscape:cy="294.38557"
   inkscape:window-width="1290"
   inkscape:window-height="795"
   inkscape:window-x="50"
   inkscape:window-y="32"
   inkscape:window-maximized="0"
   inkscape:current-layer="svg137" />

<g
   id="OBJECT"
   transform="translate(4.2130315,15.798868)">
	<g
   id="g55">
		<path
   style="opacity:0.08;fill:#43204a"
   d="m 264.956,434.338 c 31.297,0 56.668,-4.734 56.668,-10.574 0,-0.143 -0.028,-0.284 -0.058,-0.426 h -113.22 c -0.03,0.142 -0.058,0.283 -0.058,0.426 0,5.84 25.371,10.574 56.668,10.574 z"
   id="path23" />
		<g
   id="g54">
			<path
   style="fill:#ff3b3b"
   d="m 271.728,173.657 c -1.966,14.42 64.147,18.982 82.111,8.806 3.071,-1.74 6.928,-11.192 -2.569,-13.883 -12.185,-3.452 -77.374,-10.821 -79.542,5.077 z"
   id="path24" />
			<path
   style="fill:#fcde81"
   d="m 385.802,154.46 c 0,0 8.002,-6.156 10.049,-8.792 3.997,-5.148 4.768,-9.939 6.913,-8.822 1.137,0.592 0.711,2.422 -0.865,5.055 -1.331,2.223 0.136,3.385 1.046,3.681 1.998,0.648 6.15,-3.049 7.483,-3.822 1.333,-0.772 6.165,-4.861 7.458,-3.064 0.877,1.219 -8.668,8.643 -8.668,8.643 0,0 4.585,-3.241 8.336,-5.71 1.976,-1.3 3.886,-2.7 4.574,-1.43 0.615,1.135 -1.903,3.439 -2.632,4.114 -1.51,1.398 -8.441,5.733 -8.441,5.733 0,0 11.741,-7.306 12.519,-5.616 1.092,2.371 -10.631,8.94 -10.631,8.94 0,0 8.718,-5.071 9.461,-3.261 0.916,2.232 -13.124,7.936 -18.05,9.021 -7.497,1.652 -13.253,0.733 -13.253,0.733 0,0 -3.96,-0.302 -5.299,-5.403 z"
   id="path25" />
			<path
   style="fill:#ff3b3b"
   d="m 396.937,160.449 c 0,0 -5.557,-5.404 -4.856,-11.579 0,0 -41.374,4.408 -52.33,22.727 -3.793,6.343 -1.572,10 4.154,11.018 10.812,1.923 34.122,-5.567 53.032,-22.166 z"
   id="path26" />
			<path
   style="fill:#ff3b3b"
   d="m 240.092,173.657 c 1.967,14.42 -64.147,18.982 -82.111,8.806 -3.071,-1.74 -6.928,-11.192 2.569,-13.883 12.185,-3.452 77.374,-10.821 79.542,5.077 z"
   id="path27" />
			<path
   style="fill:#fcde81"
   d="m 127.019,154.46 c 0,0 -8.002,-6.156 -10.049,-8.792 -3.996,-5.148 -4.768,-9.939 -6.913,-8.822 -1.137,0.592 -0.711,2.422 0.865,5.055 1.331,2.223 -0.136,3.385 -1.046,3.681 -1.998,0.648 -6.15,-3.049 -7.483,-3.822 -1.333,-0.772 -6.165,-4.861 -7.458,-3.064 -0.877,1.219 8.668,8.643 8.668,8.643 0,0 -4.585,-3.241 -8.336,-5.71 -1.976,-1.3 -3.886,-2.7 -4.574,-1.43 -0.615,1.135 1.904,3.439 2.632,4.114 1.51,1.398 8.441,5.733 8.441,5.733 0,0 -11.741,-7.306 -12.519,-5.616 -1.092,2.371 10.631,8.94 10.631,8.94 0,0 -8.718,-5.071 -9.461,-3.261 -0.916,2.232 13.124,7.936 18.05,9.021 7.497,1.652 13.253,0.733 13.253,0.733 0,0 3.959,-0.302 5.299,-5.403 z"
   id="path28" />
			<path
   style="fill:#ff3b3b"
   d="m 115.883,160.449 c 0,0 5.557,-5.404 4.856,-11.579 0,0 41.374,4.408 52.33,22.727 3.793,6.343 1.572,10 -4.153,11.018 -10.812,1.923 -34.123,-5.567 -53.033,-22.166 z"
   id="path29" />
			<g
   id="g30">
				<polygon
   style="fill:#fcde81"
   points="249.919,397.09 249.919,401.997 268.903,401.079 268.903,397.09 "
   id="polygon29" />
				<path
   style="fill:#43204a"
   d="m 249.919,409.306 c 0,0 -9.245,8.584 -17.499,8.584 -8.254,0 -8.419,5.448 -8.419,5.448 h 34.667 l 3.137,-4.622 v 4.622 h 7.098 v -16.173 z"
   id="path30" />
				<polygon
   style="fill:#ffffff"
   points="249.919,401.997 249.919,409.306 268.903,407.165 268.903,401.079 "
   id="polygon30" />
			</g>
			<g
   id="g32">
				<polygon
   style="fill:#fcde81"
   points="281.621,397.09 281.621,401.997 300.605,401.079 300.605,397.09 "
   id="polygon31" />
				<path
   style="fill:#43204a"
   d="m 281.621,409.306 c 0,0 -9.245,8.584 -17.499,8.584 -8.254,0 -8.419,5.448 -8.419,5.448 h 34.667 l 3.137,-4.622 v 4.622 h 7.098 v -16.173 z"
   id="path31" />
				<polygon
   style="fill:#ffffff"
   points="281.621,401.997 281.621,409.306 300.605,407.165 300.605,401.079 "
   id="polygon32" />
			</g>
			<g
   id="g33">
				<path
   style="fill:#ffd9b5"
   d="M 301.424,322.708 C 292.51,303.05 283.265,256.442 283.265,256.442 h -26.633 c 0,0 -0.88,4.596 0.44,21.432 1.321,16.837 6.163,54.663 11.195,66.077 5.032,11.414 6.854,53.267 6.854,53.267 l 34.227,0.317 c 0,0 0.991,-55.169 -7.924,-74.827 z"
   id="path32" />
				<path
   style="fill:#eac6a9"
   d="m 275.121,397.218 c 0,0 -1.823,-41.852 -6.854,-53.267 -5.032,-11.414 -9.874,-49.241 -11.195,-66.077 -1.321,-16.837 -0.44,-21.432 -0.44,-21.432 H 232.42 c 0,0 2.201,74.404 7.924,93.428 5.723,19.024 4.842,49.462 4.842,49.462 z"
   id="path33" />
			</g>
			<path
   style="fill:#43204a"
   d="m 230.109,136.097 c 0,0 -1.981,5.283 1.321,9.41 3.302,4.127 -8.584,7.594 -5.943,14.032 2.641,6.438 -4.239,9.575 -0.386,12.876 0,0 6.659,0.991 12.767,-3.962 6.108,-4.952 11.537,-8.963 18.984,-8.914 7.447,0.049 10.565,-10.73 7.098,-19.48 -3.467,-8.749 -5.117,-15.683 -21.626,-15.518 -16.509,0.165 -12.215,11.556 -12.215,11.556 z"
   id="path34" />
			<path
   style="fill:#ff3b3b"
   d="m 283.203,172.496 c -2.924,-12.19 -22.53,-11.193 -29.652,-11.193 -7.121,0 -26.728,-0.997 -29.652,11.193 -2.924,12.19 -0.723,79.87 4.339,88.731 h 25.312 32.726 c 5.063,-8.861 -0.149,-76.541 -3.073,-88.731 z"
   id="path35" />
			<path
   style="fill:#ea1c1c"
   d="m 222.753,185.249 c -0.408,12.091 -0.034,29.692 0.968,45.013 19.926,0.162 50.161,-1.493 64.426,-2.918 -0.542,-15.209 -1.878,-32.122 -3.211,-43.493 -15.493,-0.566 -43.65,0.004 -62.183,1.398 z"
   id="path36" />
			<g
   id="g38">
				<path
   style="fill:#fcde81"
   d="m 259.874,152.096 c -1.079,6.079 -6.267,10.852 -14.482,11.36 l -0.59,4.006 c 0.33,0.495 8.584,9.244 17.499,0 z"
   id="path37" />
				<path
   style="fill:#e5c66e"
   d="m 259.874,152.096 -0.05,-0.316 h -12.711 l -1.721,11.677 c 8.215,-0.508 13.403,-5.282 14.482,-11.361 z"
   id="path38" />
			</g>
			<path
   style="fill:#fcde81"
   d="m 233.741,146.332 c -1.319,4.947 -2.311,13.207 8.749,13.207 11.06,0 17.168,-7.429 16.013,-15.848 -1.155,-8.419 -5.259,-22.843 -20.965,-14.857 -9.74,4.952 -2.476,12.546 -3.797,17.498 z"
   id="path39" />
			<path
   style="fill:#43204a"
   d="m 237.868,133.126 c 0,0 -0.33,4.127 6.933,3.797 7.264,-0.33 1.961,10.285 6.438,13.702 4.477,3.417 -4.952,6.933 2.311,13.206 0,0 6.603,0.495 13.702,-6.933 7.098,-7.429 9.905,-3.467 11.721,-11.721 0,0 -7.759,0 -10.07,-8.254 -2.311,-8.254 -7.264,-17.333 -19.645,-18.159 -12.381,-0.825 -14.692,4.787 -14.692,4.787 0,0 -13.371,4.292 -10.4,11.721 2.972,7.429 13.702,3.797 13.702,-2.146 z"
   id="path40" />
			<path
   style="fill:#fcde81"
   d="m 256.452,137.958 c 2.497,0 4.521,2.024 4.521,4.521 0,2.497 -2.024,4.521 -4.521,4.521 -0.755,0 -1.455,-0.203 -2.081,-0.53 0.772,-2.858 1.01,-5.828 1.011,-8.372 0.345,-0.083 0.7,-0.14 1.07,-0.14 z"
   id="path41" />
			<g
   id="g53">
				<path
   style="fill:#1a1943"
   d="m 244.001,144.983 c 0.219,0.909 1.133,1.469 2.042,1.251 0.909,-0.219 1.47,-1.133 1.251,-2.042 -0.218,-0.909 -1.133,-1.469 -2.042,-1.251 -0.91,0.219 -1.47,1.133 -1.251,2.042 z"
   id="path42" />
				<path
   style="fill:#43204a"
   d="m 249.703,141.865 c 0.156,-0.022 0.306,-0.096 0.422,-0.22 0.269,-0.288 0.253,-0.739 -0.035,-1.007 -0.172,-0.16 -4.24,-3.887 -8.722,-1.604 -0.35,0.179 -0.489,0.608 -0.311,0.959 0.179,0.35 0.601,0.492 0.96,0.311 3.592,-1.834 7.065,1.344 7.1,1.376 0.164,0.153 0.38,0.214 0.586,0.185 z"
   id="path43" />
				<path
   style="fill:#43204a"
   d="m 239.126,141.424 c 0.142,-0.02 0.279,-0.083 0.391,-0.189 0.283,-0.27 0.297,-0.715 0.031,-1.002 -0.106,-0.113 -2.645,-2.738 -7.152,-0.443 -0.35,0.178 -0.489,0.608 -0.311,0.958 0.179,0.352 0.608,0.491 0.959,0.311 3.513,-1.79 5.388,0.072 5.467,0.152 0.164,0.173 0.395,0.244 0.615,0.213 z"
   id="path44" />
				<path
   style="fill:#562a35"
   d="m 243.976,155.796 c 0.004,-0.001 0.008,-0.001 0.012,-0.002 1.101,-0.174 1.936,-0.645 2.48,-1.4 0.857,-1.186 0.632,-2.626 0.622,-2.686 -0.064,-0.388 -0.46,-0.612 -0.82,-0.588 -0.388,0.064 -0.65,0.429 -0.588,0.816 0.054,0.352 0.209,2.115 -1.918,2.45 -0.388,0.062 -0.655,0.427 -0.593,0.815 0.062,0.385 0.42,0.649 0.805,0.595 z"
   id="path45" />
				<path
   style="fill:#562a35"
   d="m 242.382,150.988 c 0.037,-0.005 0.061,-0.009 0.067,-0.011 0.386,-0.071 0.643,-0.443 0.572,-0.83 -0.073,-0.385 -0.468,-0.632 -0.828,-0.573 -0.041,0.018 -0.939,0.14 -1.404,-0.342 -0.455,-0.474 -0.372,-1.42 -0.223,-2.131 0.871,-4.129 -0.161,-5.626 -0.281,-5.783 -0.24,-0.314 -0.688,-0.371 -1,-0.131 -0.312,0.239 -0.372,0.687 -0.132,1 v 0 c -0.001,0 0.741,1.19 0.019,4.621 -0.323,1.532 -0.121,2.684 0.6,3.424 0.909,0.93 2.286,0.802 2.61,0.756 z"
   id="path46" />
				<path
   style="fill:#562a35"
   d="m 258.718,142.524 c 0.072,0.003 0.147,-0.006 0.22,-0.028 0.358,-0.106 0.561,-0.481 0.454,-0.838 -0.426,-1.433 -1.588,-1.695 -2.13,-1.64 -0.371,0.04 -0.638,0.373 -0.598,0.743 0.039,0.365 0.366,0.627 0.727,0.599 0.118,-0.007 0.515,0.034 0.709,0.682 0.085,0.284 0.338,0.47 0.618,0.482 z"
   id="path47" />
				<path
   style="fill:#562a35"
   d="m 256.57,144.946 c 0.121,0.005 0.245,-0.022 0.358,-0.086 1.943,-1.087 1.899,-3.824 1.896,-3.94 -0.009,-0.372 -0.288,-0.669 -0.689,-0.657 -0.371,0.008 -0.665,0.316 -0.659,0.687 10e-4,0.02 0.024,2.044 -1.207,2.734 -0.324,0.181 -0.44,0.592 -0.259,0.918 0.119,0.211 0.335,0.335 0.56,0.344 z"
   id="path48" />
				<path
   style="fill:#ff7694"
   d="m 248.392,147.35 c 0,0 -1.85,-0.982 -2.265,0.248 -0.499,1.481 3.92,1.839 3.92,1.839 0,0 0.893,-4.146 -0.726,-4.124 -1.62,0.024 -0.929,2.037 -0.929,2.037 z"
   id="path49" />
				<path
   style="fill:#ff7694"
   d="m 236.943,150.25 c 0,0 -1.567,-1.39 -2.259,-0.292 -0.834,1.322 3.377,2.71 3.377,2.71 0,0 1.844,-3.82 0.264,-4.178 -1.58,-0.359 -1.382,1.76 -1.382,1.76 z"
   id="path50" />
				<path
   style="fill:#1a1943"
   d="m 242.855,144.512 c -0.134,-0.56 0.909,-1.29 2.33,-1.632 1.422,-0.342 2.683,-0.165 2.818,0.395 z"
   id="path51" />
				<path
   style="fill:#1a1943"
   d="m 234.034,145.298 c 0.219,0.909 1.133,1.469 2.042,1.251 0.909,-0.219 1.47,-1.133 1.251,-2.042 -0.218,-0.909 -1.133,-1.469 -2.042,-1.251 -0.91,0.218 -1.47,1.133 -1.251,2.042 z"
   id="path52" />
				<path
   style="fill:#1a1943"
   d="m 232.888,144.827 c -0.134,-0.56 0.909,-1.29 2.33,-1.632 1.422,-0.342 2.684,-0.165 2.818,0.395 z"
   id="path53" />
			</g>
		</g>
	</g>
	<g
   id="g92">
		<path
   style="opacity:0.08;fill:#43204a"
   d="m 381.645,434.338 c 29.582,0 53.563,-4.734 53.563,-10.574 0,-0.143 -0.026,-0.284 -0.055,-0.426 H 328.136 c -0.029,0.142 -0.054,0.283 -0.054,0.426 0,5.84 23.981,10.574 53.563,10.574 z"
   id="path55" />
		<g
   id="g91">
			<path
   style="fill:#ffffff"
   d="m 419.312,419.076 -43.703,4.875 c 0,0 -4.066,-9.024 4.303,-13.317 8.369,-4.292 18.336,-4.296 17.32,-11.755 l 20.64,-2.054 z"
   id="path56" />
			<path
   style="fill:#ffffff"
   d="m 382.772,419.076 -43.703,4.875 c 0,0 -4.066,-9.024 4.303,-13.317 8.369,-4.292 18.336,-4.296 17.32,-11.755 l 20.64,-2.054 z"
   id="path57" />
			<path
   style="fill:#2f1735"
   d="m 411.264,327.886 c 0,0 -0.088,-36.592 -1.584,-56.358 -0.932,-12.313 -3.549,-19.281 -5.39,-22.785 h -1.976 -23.652 -6.527 -21.691 c 0,0 -7.334,62.572 -4.782,82.22 2.552,19.648 6.985,73.084 6.985,73.084 l 31.392,-3.508 c 1.35,-13.882 -10.918,-68.992 -10.918,-68.992 l 5.028,-58.698 c 10e-4,0.008 5.146,31.86 3.653,57.87 -0.488,8.5 7.385,73.329 7.385,73.329 l 31.392,-3.508 c 1.35,-13.883 -9.315,-72.654 -9.315,-72.654 z"
   id="path58" />
			<path
   style="fill:#aa415f"
   d="m 341.863,255.651 c 0,0 7.708,6.52 10.717,7.964 5.876,2.819 10.722,2.56 10.083,4.893 -0.339,1.236 -2.217,1.206 -5.123,0.222 -2.454,-0.831 -3.28,0.848 -3.377,1.8 -0.212,2.09 4.28,5.367 5.316,6.506 1.036,1.14 6.054,4.999 4.571,6.642 -1.006,1.115 -10.279,-6.646 -10.279,-6.646 0,0 4.137,3.797 7.342,6.942 1.688,1.656 3.46,3.228 2.364,4.169 -0.98,0.841 -3.764,-1.134 -4.577,-1.704 -1.685,-1.18 -7.387,-7.039 -7.387,-7.039 0,0 9.622,9.932 8.134,11.05 -2.087,1.569 -10.984,-8.502 -10.984,-8.502 0,0 6.798,7.449 5.186,8.558 -1.988,1.367 -10.53,-11.151 -12.632,-15.737 -3.198,-6.979 -3.517,-12.799 -3.517,-12.799 0,0 -0.539,-3.932 4.163,-6.319 z"
   id="path59" />
			<g
   id="g65">
				<path
   style="fill:#43204a"
   d="m 341.574,154.787 c -0.828,0 -1.655,-0.325 -2.273,-0.971 -1.202,-1.255 -1.158,-3.248 0.096,-4.45 0.947,-0.905 1.974,-1.198 2.822,-1.265 0.104,-0.843 0.441,-1.858 1.387,-2.764 0.944,-0.904 1.97,-1.197 2.815,-1.265 0.104,-0.843 0.441,-1.855 1.386,-2.759 0.942,-0.903 1.967,-1.196 2.813,-1.264 0.104,-0.842 0.441,-1.853 1.383,-2.755 1.495,-1.43 3.193,-1.327 4.06,-1.225 1.209,-0.631 2.738,-0.421 3.729,0.615 1.202,1.256 1.158,3.248 -0.098,4.45 -0.94,0.901 -1.964,1.194 -2.808,1.261 -0.104,0.842 -0.442,1.851 -1.384,2.753 -0.943,0.903 -1.968,1.196 -2.814,1.263 -0.104,0.843 -0.441,1.854 -1.386,2.758 -0.944,0.904 -1.971,1.197 -2.817,1.264 -0.104,0.843 -0.441,1.856 -1.385,2.761 -1.496,1.432 -3.195,1.332 -4.062,1.231 -0.458,0.242 -0.961,0.362 -1.464,0.362 z"
   id="path60" />
				<path
   style="fill:#43204a"
   d="m 348.778,161.363 c -0.608,0 -1.224,-0.176 -1.765,-0.544 -1.438,-0.977 -1.813,-2.934 -0.836,-4.372 0.736,-1.083 1.68,-1.585 2.495,-1.827 -0.075,-0.846 0.042,-1.908 0.777,-2.991 0.735,-1.082 1.677,-1.583 2.491,-1.826 -0.075,-0.846 0.044,-1.906 0.778,-2.987 0.733,-1.08 1.674,-1.581 2.487,-1.824 -0.075,-0.845 0.044,-1.904 0.777,-2.984 1.163,-1.711 2.844,-1.967 3.715,-2.046 1.051,-0.87 2.59,-0.983 3.775,-0.177 1.438,0.977 1.812,2.934 0.835,4.372 -0.732,1.077 -1.671,1.578 -2.483,1.82 0.075,0.845 -0.045,1.902 -0.777,2.981 -0.734,1.081 -1.676,1.581 -2.489,1.824 0.074,0.845 -0.044,1.905 -0.778,2.986 -0.735,1.082 -1.677,1.583 -2.491,1.826 0.075,0.846 -0.044,1.908 -0.779,2.991 -1.162,1.712 -2.844,1.969 -3.715,2.051 -0.572,0.475 -1.29,0.727 -2.017,0.727 z"
   id="path61" />
				<path
   style="fill:#43204a"
   d="m 354.951,168.759 c -0.443,0 -0.892,-0.094 -1.32,-0.292 -1.577,-0.73 -2.265,-2.601 -1.535,-4.178 0.55,-1.189 1.401,-1.836 2.165,-2.208 -0.211,-0.823 -0.267,-1.89 0.284,-3.078 0.549,-1.185 1.397,-1.832 2.16,-2.203 -0.211,-0.822 -0.265,-1.887 0.284,-3.073 0.548,-1.184 1.395,-1.83 2.158,-2.201 -0.21,-0.822 -0.264,-1.884 0.283,-3.068 0.871,-1.878 2.49,-2.404 3.334,-2.625 0.897,-1.032 2.399,-1.394 3.7,-0.79 1.577,0.731 2.263,2.602 1.532,4.179 -0.549,1.183 -1.395,1.83 -2.158,2.201 0.211,0.822 0.265,1.886 -0.284,3.07 -0.549,1.185 -1.396,1.831 -2.159,2.202 0.211,0.822 0.265,1.887 -0.284,3.072 -0.55,1.186 -1.398,1.832 -2.162,2.203 0.211,0.823 0.266,1.889 -0.284,3.076 -0.869,1.877 -2.488,2.404 -3.333,2.626 -0.602,0.695 -1.477,1.087 -2.381,1.087 z"
   id="path62" />
				<path
   style="fill:#43204a"
   d="m 401.664,149.876 c -0.518,0 -1.042,-0.128 -1.527,-0.397 -1.144,-0.636 -1.727,-1.532 -2.041,-2.321 -0.839,0.149 -1.906,0.126 -3.048,-0.509 -1.142,-0.635 -1.725,-1.529 -2.039,-2.317 -0.836,0.148 -1.901,0.125 -3.043,-0.51 -1.141,-0.634 -1.723,-1.526 -2.036,-2.314 -0.838,0.148 -1.9,0.124 -3.039,-0.508 -1.808,-1.006 -2.214,-2.659 -2.372,-3.519 -0.962,-0.969 -1.212,-2.493 -0.515,-3.746 0.845,-1.52 2.761,-2.066 4.28,-1.221 1.141,0.635 1.723,1.527 2.037,2.315 0.834,-0.149 1.899,-0.125 3.039,0.509 1.142,0.635 1.724,1.528 2.037,2.316 0.836,-0.15 1.9,-0.126 3.042,0.51 1.143,0.635 1.725,1.529 2.039,2.318 0.835,-0.15 1.903,-0.127 3.046,0.51 1.808,1.006 2.215,2.658 2.373,3.517 0.965,0.969 1.217,2.495 0.519,3.75 -0.574,1.034 -1.647,1.617 -2.752,1.617 z m -18.439,-11.861 h 0.01 z"
   id="path63" />
				<path
   style="fill:#43204a"
   d="m 396.051,157.846 c -0.735,0 -1.473,-0.256 -2.07,-0.777 -0.986,-0.862 -1.369,-1.86 -1.511,-2.698 -0.849,-0.028 -1.89,-0.274 -2.876,-1.136 -0.984,-0.86 -1.367,-1.855 -1.509,-2.692 -0.848,-0.029 -1.886,-0.274 -2.87,-1.134 -0.984,-0.859 -1.367,-1.854 -1.51,-2.691 -0.848,-0.029 -1.885,-0.274 -2.867,-1.134 -1.557,-1.361 -1.607,-3.061 -1.582,-3.935 -0.736,-1.149 -0.66,-2.689 0.283,-3.768 1.143,-1.309 3.132,-1.442 4.441,-0.299 0.981,0.858 1.363,1.849 1.505,2.685 0.847,0.029 1.883,0.275 2.865,1.134 0.983,0.859 1.366,1.855 1.509,2.691 0.848,0.028 1.886,0.274 2.871,1.134 0.984,0.861 1.367,1.857 1.509,2.695 0.849,0.029 1.889,0.274 2.874,1.136 1.558,1.361 1.611,3.062 1.586,3.935 0.742,1.149 0.669,2.694 -0.276,3.776 -0.622,0.713 -1.495,1.078 -2.372,1.078 z m -16.214,-15.524 h 0.01 z"
   id="path64" />
				<path
   style="fill:#43204a"
   d="m 391.754,166.354 c -0.907,0 -1.807,-0.39 -2.43,-1.145 -0.833,-1.01 -1.049,-2.057 -1.053,-2.906 -0.833,-0.165 -1.82,-0.576 -2.655,-1.585 -0.832,-1.008 -1.048,-2.053 -1.053,-2.902 -0.833,-0.165 -1.818,-0.576 -2.649,-1.585 -0.831,-1.006 -1.048,-2.05 -1.053,-2.898 -0.832,-0.166 -1.815,-0.576 -2.646,-1.583 -1.316,-1.595 -1.091,-3.281 -0.923,-4.14 -0.54,-1.253 -0.217,-2.761 0.889,-3.672 1.342,-1.107 3.326,-0.916 4.43,0.424 0.83,1.005 1.047,2.046 1.052,2.894 0.831,0.166 1.812,0.577 2.642,1.582 0.832,1.008 1.049,2.052 1.054,2.901 0.832,0.166 1.817,0.576 2.648,1.584 0.832,1.009 1.049,2.054 1.053,2.904 0.833,0.165 1.82,0.576 2.653,1.586 1.316,1.595 1.092,3.283 0.927,4.141 0.545,1.254 0.223,2.767 -0.884,3.682 -0.587,0.483 -1.297,0.718 -2.002,0.718 z m -13.997,-17.986 h 0.009 z"
   id="path65" />
			</g>
			<g
   id="g66">
				<path
   style="fill:#efba43"
   d="m 395.509,170.513 c 0,-12.667 -18.048,-10.871 -23.753,-10.871 -5.705,0 -23.753,-1.238 -23.753,10.871 0,63.352 2.993,79.487 2.993,79.487 0,0 10.833,0.821 19.765,0.821 11.399,-0.001 24.964,-0.821 24.964,-0.821 0,0 -0.216,-32.282 -0.216,-79.487 z"
   id="path66" />
			</g>
			<path
   style="fill:#aa415f"
   d="m 380.255,165.811 c -0.33,0.495 -8.584,9.245 -17.499,0 l 2.476,-15.683 h 12.711 z"
   id="path67" />
			<path
   style="fill:#913a57"
   d="m 365.232,150.128 -1.645,10.417 c 2.217,1.016 4.895,1.617 8.133,1.617 3.17,0 5.698,-0.683 7.729,-1.813 l -1.506,-10.22 h -12.711 z"
   id="path68" />
			<path
   style="fill:#99cc66"
   d="m 322.537,177.201 c 11.555,-22.451 36.917,-16.154 36.917,-16.154 v 93.436 c 0,0 0.97,8.374 -1.321,7.924 -2.524,-0.496 -5.267,-1.413 -7.917,-2.145 0.111,0.709 0.088,1.467 -0.071,2.286 -0.409,2.109 -1.82,4.661 -4.889,8.114 -3.172,3.568 -5.393,6.232 -8.355,6.943 -2.841,0.682 -11.723,-7.415 -17.006,-13.9 -18.504,-22.713 -8.914,-64.053 2.642,-86.504 z"
   id="path69" />
			<path
   style="fill:none;stroke:#000000;stroke-miterlimit:10"
   d="m 329.445,200.973 c -1.593,27.734 13.478,47.873 16.78,52.496 1.527,2.138 2.984,3.923 3.324,6.106"
   id="path70" />
			<path
   style="fill:#aa415f"
   d="m 387.015,133.045 c 0.128,1.187 0.252,2.838 0.251,4.723 -0.002,2.543 -0.239,5.514 -1.011,8.372 -1.604,5.936 -5.527,11.367 -14.534,11.367 -15.26,0 -18.182,-13.246 -18.249,-21.191 18.635,-5.627 31.633,-3.618 33.543,-3.271 z"
   id="path71" />
			<path
   style="fill:#aa415f"
   d="m 388.335,137.627 c 2.497,0 4.521,2.024 4.521,4.521 0,2.497 -2.024,4.521 -4.521,4.521 -0.755,0 -1.455,-0.203 -2.081,-0.53 0.772,-2.858 1.009,-5.828 1.011,-8.372 0.345,-0.083 0.7,-0.14 1.07,-0.14 z"
   id="path72" />
			<path
   style="fill:#aa415f"
   d="m 354.641,137.627 c -2.497,0 -4.521,2.024 -4.521,4.521 0,2.497 2.024,4.521 4.521,4.521 0.755,0 1.456,-0.203 2.081,-0.53 -0.772,-2.858 -1.01,-5.828 -1.011,-8.372 -0.345,-0.083 -0.7,-0.14 -1.07,-0.14 z"
   id="path73" />
			<g
   id="g85">
				<path
   style="fill:#1a1943"
   d="m 369.61,141.879 c -0.012,0.935 -0.78,1.683 -1.715,1.671 -0.935,-0.012 -1.684,-0.78 -1.671,-1.715 0.012,-0.935 0.78,-1.683 1.716,-1.671 0.934,0.012 1.682,0.78 1.67,1.715 z"
   id="path74" />
				<path
   style="fill:#1a1943"
   d="m 363.36,140.098 c -0.157,0.013 -0.319,-0.026 -0.46,-0.121 -0.326,-0.222 -0.41,-0.665 -0.189,-0.99 0.132,-0.194 3.277,-4.728 8.152,-3.492 0.381,0.097 0.612,0.485 0.515,0.866 -0.097,0.381 -0.477,0.612 -0.867,0.516 -3.909,-0.995 -6.593,2.872 -6.621,2.911 -0.126,0.185 -0.323,0.292 -0.53,0.31 z"
   id="path75" />
				<path
   style="fill:#1a1943"
   d="m 379.385,140.042 c -0.012,0.935 -0.78,1.684 -1.716,1.671 -0.935,-0.012 -1.683,-0.78 -1.671,-1.715 0.013,-0.935 0.78,-1.683 1.716,-1.671 0.935,0.011 1.683,0.779 1.671,1.715 z"
   id="path76" />
				<path
   style="fill:#1a1943"
   d="m 373.578,137.331 c -0.143,0.012 -0.291,-0.019 -0.423,-0.098 -0.335,-0.201 -0.448,-0.632 -0.251,-0.97 0.078,-0.133 1.975,-3.255 6.877,-2.012 0.381,0.097 0.612,0.485 0.515,0.866 -0.097,0.383 -0.484,0.613 -0.867,0.516 -3.821,-0.969 -5.239,1.261 -5.298,1.356 -0.123,0.203 -0.332,0.324 -0.553,0.342 z"
   id="path77" />
				<path
   style="fill:#562a35"
   d="m 372.024,152.419 c -0.004,0 -0.008,10e-4 -0.013,10e-4 -1.112,0.074 -2.03,-0.202 -2.729,-0.818 -1.098,-0.967 -1.197,-2.421 -1.2,-2.483 -0.023,-0.393 0.314,-0.699 0.669,-0.754 0.392,-0.023 0.729,0.275 0.754,0.666 0.025,0.355 0.263,2.109 2.412,1.965 0.392,-0.025 0.733,0.271 0.758,0.664 0.026,0.39 -0.264,0.727 -0.651,0.759 z"
   id="path78" />
				<path
   style="fill:#562a35"
   d="m 372.516,147.378 c -0.037,0.003 -0.061,0.004 -0.068,0.004 -0.393,0.016 -0.726,-0.29 -0.742,-0.683 -0.014,-0.391 0.316,-0.72 0.68,-0.741 0.044,0.008 0.947,-0.072 1.294,-0.644 0.339,-0.563 0.049,-1.467 -0.254,-2.128 -1.762,-3.834 -1.086,-5.522 -1.004,-5.702 0.165,-0.359 0.589,-0.514 0.946,-0.349 0.358,0.164 0.514,0.588 0.35,0.946 v 0 c 10e-4,0 -0.46,1.324 1.003,4.51 0.653,1.423 0.711,2.591 0.171,3.472 -0.679,1.109 -2.05,1.288 -2.376,1.315 z"
   id="path79" />
				<path
   style="fill:#562a35"
   d="m 352.333,142.656 c -0.07,0.019 -0.144,0.027 -0.221,0.022 -0.372,-0.024 -0.653,-0.345 -0.628,-0.717 0.098,-1.491 1.174,-2.004 1.715,-2.071 0.371,-0.043 0.704,0.223 0.747,0.592 0.043,0.364 -0.219,0.692 -0.577,0.745 -0.116,0.019 -0.495,0.147 -0.541,0.822 -0.019,0.295 -0.224,0.533 -0.495,0.607 z"
   id="path80" />
				<path
   style="fill:#562a35"
   d="m 354.963,144.543 c -0.117,0.032 -0.244,0.033 -0.368,-0.005 -2.135,-0.631 -2.697,-3.31 -2.719,-3.424 -0.073,-0.364 0.133,-0.716 0.527,-0.793 0.363,-0.074 0.719,0.161 0.794,0.524 0.004,0.02 0.428,1.999 1.781,2.4 0.356,0.105 0.56,0.48 0.455,0.838 -0.069,0.233 -0.253,0.401 -0.47,0.46 z"
   id="path81" />
				<path
   style="fill:#562a35"
   d="m 389.663,141.712 c 0.07,0.019 0.144,0.027 0.221,0.022 0.372,-0.024 0.653,-0.345 0.628,-0.717 -0.099,-1.491 -1.174,-2.004 -1.715,-2.071 -0.371,-0.043 -0.705,0.223 -0.748,0.592 -0.043,0.364 0.219,0.693 0.577,0.745 0.116,0.019 0.495,0.147 0.541,0.822 0.02,0.295 0.225,0.533 0.496,0.607 z"
   id="path82" />
				<path
   style="fill:#562a35"
   d="m 387.033,143.599 c 0.117,0.032 0.243,0.033 0.368,-0.005 2.135,-0.631 2.697,-3.31 2.72,-3.424 0.073,-0.364 -0.133,-0.716 -0.527,-0.793 -0.363,-0.074 -0.719,0.161 -0.794,0.524 -0.004,0.02 -0.428,1.999 -1.781,2.4 -0.356,0.105 -0.56,0.48 -0.455,0.838 0.068,0.233 0.252,0.401 0.469,0.46 z"
   id="path83" />
				<path
   style="fill:#ff7694"
   d="m 365.85,145.158 c 0,0 1.587,-1.366 2.263,-0.258 0.814,1.334 -3.416,2.66 -3.416,2.66 0,0 -1.788,-3.846 -0.203,-4.182 1.585,-0.336 1.356,1.78 1.356,1.78 z"
   id="path84" />
				<path
   style="fill:#ff7694"
   d="m 377.657,145.456 c 0,0 1.221,-1.701 2.139,-0.784 1.105,1.105 -2.695,3.389 -2.695,3.389 0,0 -2.642,-3.318 -1.181,-4.017 1.462,-0.699 1.737,1.412 1.737,1.412 z"
   id="path85" />
			</g>
			<path
   style="fill:#43204a"
   d="m 353.472,136.316 c 0,0 -0.62,2.695 2.56,6.363 l 1.171,-7.397 c 0,0 10.49,-3.005 25.906,-2.701 l 4.039,8.2 c 0,0 0.607,-5.104 -0.134,-7.736 -0.741,-2.633 -7.26,-7.017 -16.646,-6.117 -9.385,0.899 -16.795,4.476 -16.896,9.388 z"
   id="path86" />
			<path
   style="fill:#ffffff"
   d="m 353.472,136.316 c -0.02,-2.397 0.217,-4.317 0.457,-5.238 1.036,-3.973 20.038,-16.928 32.82,0 0,0 0.134,0.745 0.266,1.967 -1.91,-0.347 -14.908,-2.356 -33.543,3.271 z"
   id="path87" />
			<path
   style="fill:#ffffff"
   d="m 383.43,127.458 c 9.952,-2.217 13.506,-0.712 13.971,0.683 0.691,2.073 -10.386,4.904 -10.386,4.904 -1.524,-0.277 -10.125,-1.6 -23.003,0.732 l -0.009,-0.006 c 8.248,-3.282 14.589,-5.235 19.427,-6.313 z"
   id="path88" />
			<path
   style="fill:#aa415f"
   d="m 405.892,255.651 c 0,0 -7.707,6.52 -10.717,7.964 -5.876,2.819 -10.722,2.56 -10.083,4.893 0.339,1.236 2.217,1.206 5.123,0.222 2.454,-0.831 3.28,0.848 3.377,1.8 0.212,2.09 -4.28,5.367 -5.316,6.506 -1.036,1.14 -6.054,4.999 -4.571,6.642 1.006,1.115 10.279,-6.646 10.279,-6.646 0,0 -4.137,3.797 -7.342,6.942 -1.688,1.656 -3.461,3.228 -2.364,4.169 0.98,0.841 3.764,-1.134 4.577,-1.704 1.685,-1.18 7.387,-7.039 7.387,-7.039 0,0 -9.622,9.932 -8.135,11.05 2.087,1.569 10.984,-8.502 10.984,-8.502 0,0 -6.798,7.449 -5.186,8.558 1.988,1.367 10.53,-11.151 12.632,-15.737 3.198,-6.979 3.517,-12.799 3.517,-12.799 0,0 0.54,-3.932 -4.162,-6.319 z"
   id="path89" />
			<path
   style="fill:#99cc66"
   d="M 425.218,177.201 C 413.662,154.75 388.301,161.047 388.301,161.047 v 93.436 c 0,0 -0.97,8.374 1.321,7.924 2.524,-0.496 5.267,-1.413 7.917,-2.145 -0.111,0.709 -0.088,1.467 0.071,2.286 0.409,2.109 1.82,4.661 4.889,8.114 3.172,3.568 5.393,6.232 8.355,6.943 2.841,0.682 11.723,-7.415 17.006,-13.9 18.503,-22.713 8.914,-64.053 -2.642,-86.504 z"
   id="path90" />
			<path
   style="fill:none;stroke:#000000;stroke-miterlimit:10"
   d="m 418.31,200.973 c 1.593,27.734 -13.478,47.873 -16.78,52.496 -1.527,2.138 -2.984,3.923 -3.324,6.106"
   id="path91" />
		</g>
	</g>
	<g
   id="g126">
		<path
   style="opacity:0.08;fill:#43204a"
   d="m 138.909,434.338 c 28.303,0 51.247,-4.734 51.247,-10.574 0,-0.143 -0.025,-0.284 -0.052,-0.426 H 87.714 c -0.027,0.142 -0.052,0.283 -0.052,0.426 0,5.84 22.944,10.574 51.247,10.574 z"
   id="path92" />
		<g
   id="g125">
			<g
   id="g114">
				<g
   id="g96">
					<polygon
   style="fill:#f29ba3"
   points="139.674,315.815 114.707,315.815 114.707,394.574 114.707,405.421 139.674,405.421 139.674,399.669 "
   id="polygon92" />
					<rect
   x="114.707"
   y="307.005"
   style="fill:#db8690"
   width="24.966999"
   height="28.211"
   id="rect92" />
					<rect
   x="101.42"
   y="418.25601"
   style="fill:#ffffff"
   width="41.984001"
   height="5.0819998"
   id="rect93" />
					<rect
   x="114.707"
   y="339.759"
   style="fill:#ffffff"
   width="24.966999"
   height="65.663002"
   id="rect94" />
					<path
   style="fill:#d6a441"
   d="m 140.402,403.773 c -5.549,-1.892 -14.146,0.019 -14.419,3.157 0,0 -0.136,-7.369 -8.87,-7.369 -4.915,0 -5.94,3.329 -5.897,6.24 0,0 -9.796,1.266 -9.796,12.455 h 41.756 c 0,0 2.775,-12.592 -2.774,-14.483 z"
   id="path94" />
					<rect
   x="114.707"
   y="346.19"
   style="fill:#86c0ff"
   width="24.966999"
   height="3.1370001"
   id="rect95" />
					<rect
   x="114.707"
   y="352.46301"
   style="fill:#86c0ff"
   width="24.966999"
   height="3.1370001"
   id="rect96" />
				</g>
				<g
   id="g101">
					<polygon
   style="fill:#f29ba3"
   points="175.296,315.815 150.329,315.815 150.329,394.574 150.329,405.421 175.296,405.421 175.296,399.669 "
   id="polygon96" />
					<rect
   x="150.32899"
   y="315.815"
   style="fill:#db8690"
   width="24.966999"
   height="19.4"
   id="rect97" />
					<rect
   x="137.04201"
   y="418.25601"
   style="fill:#ffffff"
   width="41.984001"
   height="5.0819998"
   id="rect98" />
					<rect
   x="150.32899"
   y="339.759"
   style="fill:#ffffff"
   width="24.966999"
   height="65.663002"
   id="rect99" />
					<path
   style="fill:#efba43"
   d="m 176.023,403.773 c -5.549,-1.892 -14.146,0.019 -14.419,3.157 0,0 -0.136,-7.369 -8.87,-7.369 -4.915,0 -5.94,3.329 -5.897,6.24 0,0 -9.796,1.266 -9.796,12.455 h 41.756 c 0.001,0 2.776,-12.592 -2.774,-14.483 z"
   id="path99" />
					<rect
   x="150.32899"
   y="346.19"
   style="fill:#86c0ff"
   width="24.966999"
   height="3.1370001"
   id="rect100" />
					<rect
   x="150.32899"
   y="352.46301"
   style="fill:#86c0ff"
   width="24.966999"
   height="3.1370001"
   id="rect101" />
				</g>
				<g
   id="g102">
					<path
   style="fill:#75aed8"
   d="m 129.138,238.161 c 0,0 -10.374,0.99 -19.398,-0.991 0,0 -4.182,12.106 -4.842,18.929 -0.66,6.823 0,56.788 0,56.788 0,0 24.436,1.896 35.788,2.168 l -0.901,-63.358 c -9.575,-0.824 -10.647,-13.536 -10.647,-13.536 z"
   id="path101" />
					<path
   style="fill:#86c0ff"
   d="m 168.179,238.161 c -13.867,1.321 -29.88,0 -29.88,0 h -9.161 c 0,0 1.072,12.711 10.646,13.537 l 0.901,63.358 0.09,6.306 h 39.289 c 0,0 1.021,-22.451 3.477,-45.562 2.456,-23.111 -15.362,-37.639 -15.362,-37.639 z"
   id="path102" />
				</g>
				<path
   style="fill:#41254b"
   d="m 108.733,159.853 c 14.41,2.037 0.786,66.893 -13.899,81.404 -2.511,2.481 -12.656,3.617 -12.658,-6.254 -0.002,-12.665 10.67,-77.395 26.557,-75.15 z"
   id="path103" />
				<path
   style="fill:#f29ba3"
   d="m 66.26,196.124 c 0,0 -3.456,-9.486 -3.771,-12.809 -0.615,-6.488 1.302,-10.946 -1.108,-11.153 -1.277,-0.11 -1.898,1.664 -1.979,4.731 -0.068,2.59 -1.929,2.785 -2.856,2.547 -2.035,-0.523 -3.557,-5.87 -4.269,-7.237 -0.711,-1.366 -2.599,-7.408 -4.654,-6.584 -1.394,0.559 2.686,11.943 2.686,11.943 0,0 -2.134,-5.194 -3.978,-9.288 -0.971,-2.157 -1.833,-4.363 -3.095,-3.659 -1.128,0.629 -0.236,3.924 0.017,4.884 0.526,1.989 4.054,9.364 4.054,9.364 0,0 -5.996,-12.461 -7.559,-11.451 -2.193,1.417 4.183,13.245 4.183,13.245 0,0 -4.642,-8.953 -6.239,-7.823 -1.97,1.393 6.826,13.734 10.403,17.291 5.444,5.412 10.796,7.722 10.796,7.722 0,0 3.504,1.865 7.369,-1.723 z"
   id="path104" />
				<path
   style="fill:#41254b"
   d="m 53.649,195.211 c 0,0 7.588,-1.583 10.306,-7.173 0,0 32.566,25.897 31.997,47.235 -0.197,7.388 -4.032,9.285 -9.412,7.076 C 76.382,238.177 60.717,219.36 53.649,195.211 Z"
   id="path105" />
				<path
   style="fill:#a9425f"
   d="m 109.141,238.972 c -0.136,-0.237 -0.267,-0.508 -0.395,-0.809 -4.642,-10.962 -4.145,-63.279 -1.299,-75.142 2.924,-12.19 22.53,-11.193 29.652,-11.193 7.122,0 26.728,-0.997 29.652,11.193 2.924,12.19 9.967,69.7 4.904,78.561 -0.001,-0.001 -39.453,8.876 -62.514,-2.61 z"
   id="path106" />
				<path
   style="fill:#f29ba3"
   d="m 130.156,157.987 c 0.33,0.495 8.584,9.245 17.499,0 l -2.476,-15.683 h -12.711 z"
   id="path107" />
				<path
   style="fill:#db8690"
   d="m 132.467,142.304 -1.407,9.55 c 2.013,1.094 4.518,1.742 7.63,1.742 3.186,0 5.827,-0.583 8.023,-1.569 l -1.535,-9.723 z"
   id="path108" />
				<path
   style="fill:#f29ba3"
   d="m 156.482,123.254 c -1.036,-3.973 -20.038,-16.928 -32.82,0 0,0 -0.134,0.745 -0.266,1.967 -0.66,6.116 -1.261,24.462 15.294,24.462 15.26,0 18.182,-13.246 18.249,-21.191 0.02,-2.397 -0.217,-4.318 -0.457,-5.238 z"
   id="path109" />
				<path
   style="fill:#efba43"
   d="m 138.905,127.887 c -13.863,4.415 -27.734,6.14 -32.356,-4.182 -2.444,-5.457 5.283,-15.738 17.498,-10.811 8.726,3.519 22.492,-5.073 31.531,3.327 4.085,3.797 5.614,14.313 -2.724,17.806 0,0 -1.898,-0.803 -2.393,3.159 0,0 -4.621,-2.971 -2.806,-8.584 1.814,-5.612 -6.659,-1.381 -8.75,-0.715 z"
   id="path110" />
				<path
   style="fill:#f29ba3"
   d="m 154.364,128.482 c 2.497,0 4.521,2.024 4.521,4.521 0,2.497 -2.024,4.521 -4.521,4.521 -0.755,0 -1.456,-0.203 -2.081,-0.53 0.772,-2.858 1.009,-5.828 1.011,-8.372 0.345,-0.083 0.699,-0.14 1.07,-0.14 z"
   id="path111" />
				<path
   style="fill:#41254b"
   d="m 163.771,157.459 c 12.391,-3.998 29.393,60.094 22.349,79.5 -1.204,3.318 -9.883,8.694 -14.117,-0.222 -5.432,-11.441 -23.682,-74.293 -8.232,-79.278 z"
   id="path112" />
				<path
   style="fill:#f29ba3"
   d="m 176.475,270.886 c 0,0 -1.943,9.907 -3.39,12.915 -2.826,5.872 -6.771,8.699 -4.814,10.121 1.037,0.754 2.485,-0.444 4.139,-3.028 1.397,-2.183 3.091,-1.388 3.761,-0.705 1.471,1.5 0.012,6.864 -0.084,8.402 -0.097,1.537 -1.603,7.686 0.582,8.042 1.482,0.242 3.872,-11.612 3.872,-11.612 0,0 -0.857,5.549 -1.394,10.008 -0.283,2.348 -0.685,4.682 0.759,4.732 1.291,0.044 2.23,-3.237 2.509,-4.19 0.578,-1.975 1.368,-10.112 1.368,-10.112 0,0 -1.305,13.767 0.554,13.71 2.61,-0.08 3.262,-13.501 3.262,-13.501 0,0 -0.652,10.064 1.299,9.922 2.406,-0.175 1.253,-15.285 0.027,-20.179 -1.864,-7.447 -5.253,-12.19 -5.253,-12.19 0,0 -2.035,-3.41 -7.197,-2.335 z"
   id="path113" />
				<path
   style="fill:#41254b"
   d="m 186.854,278.188 c 0,0 -7.077,-2.548 -12.135,0.845 0,0 -13.951,-38.959 -2.76,-56.957 3.874,-6.231 8.003,-5.884 11.346,-1.222 6.313,8.804 9.828,32.996 3.549,57.334 z"
   id="path114" />
			</g>
			<g
   id="g124">
				<path
   style="fill:#1a1943"
   d="m 138.886,136.211 c -0.032,0.935 0.7,1.718 1.634,1.75 0.935,0.032 1.719,-0.7 1.751,-1.634 0.032,-0.935 -0.7,-1.718 -1.634,-1.751 -0.935,-0.032 -1.719,0.7 -1.751,1.635 z"
   id="path115" />
				<path
   style="fill:#43204a"
   d="m 145.214,134.727 c 0.156,0.02 0.32,-0.011 0.465,-0.099 0.336,-0.206 0.441,-0.645 0.235,-0.98 -0.123,-0.2 -3.049,-4.877 -7.977,-3.873 -0.385,0.079 -0.634,0.456 -0.555,0.841 0.079,0.385 0.448,0.634 0.842,0.556 3.951,-0.809 6.45,3.181 6.475,3.221 0.117,0.19 0.309,0.307 0.515,0.334 z"
   id="path116" />
				<path
   style="fill:#1a1943"
   d="m 129.209,133.913 c -0.032,0.935 0.7,1.719 1.634,1.75 0.935,0.032 1.718,-0.699 1.751,-1.634 0.032,-0.935 -0.7,-1.718 -1.635,-1.75 -0.934,-0.033 -1.718,0.699 -1.75,1.634 z"
   id="path117" />
				<path
   style="fill:#43204a"
   d="m 135.138,131.48 c 0.142,0.018 0.291,-0.005 0.427,-0.077 0.344,-0.185 0.477,-0.61 0.297,-0.957 -0.072,-0.137 -1.819,-3.345 -6.774,-2.335 -0.385,0.078 -0.634,0.455 -0.555,0.841 0.078,0.387 0.455,0.635 0.841,0.556 3.863,-0.787 5.174,1.507 5.228,1.606 0.113,0.207 0.316,0.337 0.536,0.366 z"
   id="path118" />
				<path
   style="fill:#562a35"
   d="m 135.977,146.625 c 0.004,0 0.008,0.001 0.013,0.001 1.107,0.126 2.037,-0.105 2.764,-0.688 1.143,-0.914 1.31,-2.362 1.316,-2.423 0.041,-0.391 -0.28,-0.713 -0.633,-0.785 -0.391,-0.042 -0.741,0.24 -0.785,0.63 -0.042,0.353 -0.363,2.094 -2.502,1.849 -0.391,-0.044 -0.745,0.236 -0.789,0.628 -0.044,0.387 0.231,0.737 0.616,0.788 z"
   id="path119" />
				<path
   style="fill:#562a35"
   d="m 135.723,141.566 c 0.037,0.005 0.061,0.007 0.068,0.008 0.391,0.035 0.738,-0.255 0.773,-0.647 0.033,-0.39 -0.282,-0.734 -0.645,-0.773 -0.044,0.006 -0.942,-0.116 -1.261,-0.704 -0.312,-0.578 0.021,-1.468 0.354,-2.113 1.942,-3.746 1.346,-5.465 1.272,-5.649 -0.147,-0.366 -0.564,-0.541 -0.929,-0.393 -0.365,0.147 -0.541,0.563 -0.394,0.928 v 0 c -0.001,0 0.397,1.345 -1.215,4.458 -0.72,1.39 -0.833,2.554 -0.335,3.46 0.627,1.139 1.988,1.382 2.312,1.425 z"
   id="path120" />
				<path
   style="fill:#562a35"
   d="m 156.059,133.749 c 0.069,0.022 0.143,0.034 0.219,0.032 0.373,-0.006 0.669,-0.314 0.662,-0.686 -0.028,-1.494 -1.078,-2.058 -1.615,-2.15 -0.368,-0.06 -0.714,0.189 -0.775,0.557 -0.06,0.362 0.186,0.702 0.541,0.772 0.115,0.024 0.488,0.17 0.502,0.847 0.005,0.294 0.199,0.541 0.466,0.628 z"
   id="path121" />
				<path
   style="fill:#562a35"
   d="m 153.342,135.51 c 0.115,0.037 0.242,0.044 0.368,0.013 2.162,-0.53 2.85,-3.179 2.878,-3.291 0.09,-0.36 -0.099,-0.721 -0.489,-0.817 -0.359,-0.091 -0.726,0.127 -0.818,0.486 -0.005,0.02 -0.522,1.977 -1.893,2.313 -0.361,0.088 -0.582,0.453 -0.494,0.815 0.059,0.235 0.234,0.411 0.448,0.481 z"
   id="path122" />
				<path
   style="fill:#ff7694"
   d="m 142.487,139.664 c 0,0 -1.521,-1.44 -2.249,-0.365 -0.876,1.294 3.287,2.819 3.287,2.819 0,0 1.967,-3.758 0.4,-4.168 -1.567,-0.411 -1.438,1.714 -1.438,1.714 z"
   id="path123" />
				<path
   style="fill:#ff7694"
   d="m 130.679,139.403 c 0,0 -1.139,-1.757 -2.099,-0.884 -1.156,1.051 2.531,3.513 2.531,3.513 0,0 2.796,-3.189 1.37,-3.956 -1.427,-0.769 -1.802,1.327 -1.802,1.327 z"
   id="path124" />
			</g>
		</g>
	</g>
</g>

</svg>
