<?xml version="1.0" encoding="UTF-8" standalone="no"?>
<!-- Generator: Adobe Illustrator 27.5.0, SVG Export Plug-In . SVG Version: 6.00 Build 0)  -->

<svg
   version="1.1"
   id="Layer_1"
   x="0px"
   y="0px"
   viewBox="0 0 450 399.728"
   style="enable-background:new 0 0 450 399.728;"
   xml:space="preserve"
   sodipodi:docname="phone.svg"
   inkscape:version="1.4 (e7c3feb100, 2024-10-09)"
   xmlns:inkscape="http://www.inkscape.org/namespaces/inkscape"
   xmlns:sodipodi="http://sodipodi.sourceforge.net/DTD/sodipodi-0.dtd"
   xmlns="http://www.w3.org/2000/svg"
   xmlns:svg="http://www.w3.org/2000/svg"><defs
   id="defs916" /><sodipodi:namedview
   id="namedview916"
   pagecolor="#ffffff"
   bordercolor="#000000"
   borderopacity="0.25"
   inkscape:showpageshadow="2"
   inkscape:pageopacity="0.0"
   inkscape:pagecheckerboard="0"
   inkscape:deskcolor="#d1d1d1"
   inkscape:zoom="1.523536"
   inkscape:cx="223.49324"
   inkscape:cy="199.864"
   inkscape:window-width="1290"
   inkscape:window-height="795"
   inkscape:window-x="50"
   inkscape:window-y="32"
   inkscape:window-maximized="0"
   inkscape:current-layer="Layer_1" />





<g
   id="g372"
   transform="matrix(3.842294,0,0,3.842294,-946.44811,-22.382455)">
	<g
   id="g338">
		<g
   id="g312">
			<g
   id="g310">
				<g
   id="g303">
					<path
   style="fill:#fdda99"
   d="m 311.379,53.833 c 0.173,-0.105 0.343,-0.209 0.506,-0.32 0.872,0.367 2.106,0.635 2.75,0.63 0.284,-0.002 0.684,0.124 0.674,0.534 0,0.004 0,0.007 0,0.011 0.052,0.537 -0.63,0.598 -0.93,0.623 -0.633,0.053 -2.759,-0.395 -3.88,-0.822 0.286,-0.229 0.567,-0.466 0.88,-0.656 z"
   id="path298" />
					<path
   style="fill:#fdda99"
   d="m 313.481,55.965 0.009,-0.006 c 0.234,-0.177 0.566,-0.13 0.743,0.103 l 2.035,2.582 c 0.176,0.234 0.13,0.566 -0.103,0.743 l -0.008,0.006 c -0.234,0.177 -0.566,0.131 -0.743,-0.103 l -2.035,-2.582 c -0.178,-0.234 -0.132,-0.567 0.102,-0.743 z"
   id="path299" />
					<path
   style="fill:#fdda99"
   d="m 312.607,56.313 0.01,-0.005 c 0.257,-0.14 0.579,-0.045 0.719,0.212 l 1.973,3.426 c 0.14,0.257 0.046,0.579 -0.211,0.719 l -0.009,0.005 c -0.257,0.14 -0.579,0.046 -0.719,-0.211 l -1.973,-3.426 c -0.142,-0.258 -0.047,-0.58 0.21,-0.72 z"
   id="path300" />
					<path
   style="fill:#fdda99"
   d="m 311.794,56.793 0.01,-0.004 c 0.271,-0.111 0.58,0.02 0.691,0.291 l 1.381,3.346 c 0.111,0.271 -0.02,0.58 -0.291,0.691 l -0.01,0.004 c -0.271,0.111 -0.581,-0.02 -0.691,-0.291 l -1.381,-3.346 c -0.11,-0.271 0.02,-0.581 0.291,-0.691 z"
   id="path301" />
					<path
   style="fill:#fdda99"
   d="m 310.852,56.691 0.009,-0.003 c 0.25,-0.073 0.511,0.069 0.585,0.319 l 1.017,3.344 c 0.073,0.249 -0.07,0.511 -0.319,0.584 l -0.009,0.003 c -0.249,0.073 -0.511,-0.069 -0.585,-0.319 l -1.017,-3.343 c -0.073,-0.25 0.069,-0.512 0.319,-0.585 z"
   id="path302" />
					<path
   style="fill:#fdda99"
   d="m 314.411,56.299 -0.656,-0.867 v 0 l -0.77,-1.018 c -0.52,-0.687 -1.458,-1.347 -2.146,-0.827 l -0.66,0.318 c -0.687,0.52 -1.085,1.642 -0.618,2.611 l 0.872,1.428 v 0 l 0.456,0.602 c 0.157,0.208 0.452,0.249 0.66,0.092 l 0.007,-0.006 c 0.208,-0.157 0.248,-0.452 0.092,-0.66 l 0.104,0.138 c 0.177,0.234 0.509,0.28 0.743,0.103 l 0.009,-0.007 c 0.234,-0.177 0.28,-0.509 0.103,-0.743 l 0.096,0.127 c 0.177,0.234 0.509,0.28 0.743,0.103 l 0.008,-0.006 c 0.234,-0.177 0.28,-0.509 0.103,-0.743 0.177,0.234 0.509,0.28 0.743,0.103 l 0.008,-0.007 c 0.234,-0.175 0.28,-0.508 0.103,-0.741 z"
   id="path303" />
				</g>
				<g
   id="g309">
					<path
   style="fill:#ffc990"
   d="m 311.379,53.833 c 0.173,-0.105 0.343,-0.209 0.506,-0.32 0.872,0.367 2.106,0.635 2.75,0.63 0.284,-0.002 0.684,0.124 0.674,0.534 0,0.004 0,0.007 0,0.011 0.052,0.537 -0.63,0.598 -0.93,0.623 -0.633,0.053 -2.759,-0.395 -3.88,-0.822 0.286,-0.229 0.567,-0.466 0.88,-0.656 z"
   id="path304" />
					<path
   style="fill:#ffc990"
   d="m 313.481,55.965 0.009,-0.006 c 0.234,-0.177 0.566,-0.13 0.743,0.103 l 2.035,2.582 c 0.176,0.234 0.13,0.566 -0.103,0.743 l -0.008,0.006 c -0.234,0.177 -0.566,0.131 -0.743,-0.103 l -2.035,-2.582 c -0.178,-0.234 -0.132,-0.567 0.102,-0.743 z"
   id="path305" />
					<path
   style="fill:#ffc990"
   d="m 312.607,56.313 0.01,-0.005 c 0.257,-0.14 0.579,-0.045 0.719,0.212 l 1.973,3.426 c 0.14,0.257 0.046,0.579 -0.211,0.719 l -0.009,0.005 c -0.257,0.14 -0.579,0.046 -0.719,-0.211 l -1.973,-3.426 c -0.142,-0.258 -0.047,-0.58 0.21,-0.72 z"
   id="path306" />
					<path
   style="fill:#ffc990"
   d="m 311.794,56.793 0.01,-0.004 c 0.271,-0.111 0.58,0.02 0.691,0.291 l 1.381,3.346 c 0.111,0.271 -0.02,0.58 -0.291,0.691 l -0.01,0.004 c -0.271,0.111 -0.581,-0.02 -0.691,-0.291 l -1.381,-3.346 c -0.11,-0.271 0.02,-0.581 0.291,-0.691 z"
   id="path307" />
					<path
   style="fill:#ffc990"
   d="m 310.852,56.691 0.009,-0.003 c 0.25,-0.073 0.511,0.069 0.585,0.319 l 1.017,3.344 c 0.073,0.249 -0.07,0.511 -0.319,0.584 l -0.009,0.003 c -0.249,0.073 -0.511,-0.069 -0.585,-0.319 l -1.017,-3.343 c -0.073,-0.25 0.069,-0.512 0.319,-0.585 z"
   id="path308" />
					<path
   style="fill:#ffc990"
   d="m 314.411,56.299 -0.656,-0.867 v 0 l -0.77,-1.018 c -0.52,-0.687 -1.458,-1.347 -2.146,-0.827 l -0.66,0.318 c -0.687,0.52 -1.085,1.642 -0.618,2.611 l 0.872,1.428 v 0 l 0.456,0.602 c 0.157,0.208 0.452,0.249 0.66,0.092 l 0.007,-0.006 c 0.208,-0.157 0.248,-0.452 0.092,-0.66 l 0.104,0.138 c 0.177,0.234 0.509,0.28 0.743,0.103 l 0.009,-0.007 c 0.234,-0.177 0.28,-0.509 0.103,-0.743 l 0.096,0.127 c 0.177,0.234 0.509,0.28 0.743,0.103 l 0.008,-0.006 c 0.234,-0.177 0.28,-0.509 0.103,-0.743 0.177,0.234 0.509,0.28 0.743,0.103 l 0.008,-0.007 c 0.234,-0.175 0.28,-0.508 0.103,-0.741 z"
   id="path309" />
				</g>
			</g>
			<path
   style="fill:#ffc990"
   d="m 306.144,46.103 c -2.511,-4.103 -7.61,-0.396 -4.316,3.127 l 7.851,7.037 2.378,-2.228 z"
   id="path310" />
			<path
   style="fill:#d74819"
   d="m 296.521,35.331 1.991,6.193 2.287,6.494 4.693,-2.831 -1.415,-5.231 -1.85,-6.294 c -1.211,-4.135 -7.055,-3.329 -5.706,1.669 z"
   id="path311" />
			<path
   style="fill:#ba3e16"
   d="m 301.861,49.428 c -0.456,0.321 -0.999,-0.363 -1.364,-1.176 -0.291,-0.969 -0.699,-1.563 -0.372,-1.743 l 4.968,-2.513 c 0.461,-0.26 1.478,1.828 1.127,1.946 z"
   id="path312" />
		</g>
		<path
   style="fill:#3c3c3b"
   d="m 277.171,67.022 0.998,3.388 -0.366,0.759 c -0.21,-0.036 -0.414,-0.04 -0.61,-0.017 -0.065,0.007 -0.131,0.015 -0.196,0.029 -0.615,0.114 -1.177,0.447 -1.719,0.77 -0.413,0.242 -0.933,0.978 -1.585,1.637 -0.133,0.13 -0.262,0.26 -0.378,0.383 -0.7,0.729 -1.228,1.359 -1.783,1.528 -0.455,0.23 -0.985,-0.1 -1.694,-0.365 -0.115,-0.031 -0.189,-0.132 -0.19,-0.243 -0.009,-1.023 0.4,-2.819 1.135,-4.079 l 0.607,-1.052 0.719,-1.243 0.837,-1.445 c 0.025,-0.043 0.048,-0.086 0.073,-0.126 l 0.258,-0.512 0.077,-0.142 0.538,-1.034 c 0.108,-0.205 0.237,-0.397 0.391,-0.576 l 0.528,-0.608 c 0.039,-0.05 0.1,-0.077 0.163,-0.081 0.111,-0.005 0.793,0.427 1.485,0.899 0.705,0.478 1.425,0.998 1.564,1.137 l 0.02,0.019 c 0.08,0.071 0.268,0.386 0.581,0.716 0.213,0.226 -1.934,0.023 -1.603,0.191 0.051,0.026 0.1,0.048 0.15,0.067 z"
   id="path313" />
		<path
   style="fill:#00475e"
   d="m 295.947,73.199 c -0.095,0.177 -0.198,0.344 -0.314,0.502 0,0 -0.01,0.01 -0.023,0.031 -0.149,0.205 -0.322,0.393 -0.508,0.558 -0.027,0.024 -0.05,0.048 -0.077,0.072 -0.517,0.444 -1.154,0.751 -1.848,0.869 -1.977,0.401 -3.197,-0.736 -3.662,-2.631 -0.036,-0.141 -0.065,-0.286 -0.091,-0.435 -0.053,-0.161 -0.662,-2.25 -1.35,-5.315 v -0.003 c -0.54,-2.428 -1.13,-5.47 -1.526,-8.66 -0.077,-0.614 -0.147,-1.235 -0.207,-1.859 -0.048,-0.499 -0.09,-1.002 -0.127,-1.505 -0.004,-0.236 -0.004,-0.456 0.007,-0.672 v -0.003 c 0.012,-0.321 0.038,-0.619 0.081,-0.893 0.061,-0.417 0.154,-0.779 0.274,-1.096 0.097,-0.255 0.212,-0.48 0.341,-0.674 0.258,-0.392 0.578,-0.671 0.947,-0.855 2.676,-1.345 7.686,2.388 7.686,2.388 0.05,1.057 0.094,1.999 0.131,2.836 0.009,0.142 0.014,0.28 0.02,0.415 0.029,0.561 0.05,1.077 0.074,1.553 0.253,5.602 0.239,5.75 0.499,11.578 0.016,0.409 0.036,0.847 0.057,1.317 0.143,0.91 -0.017,1.764 -0.384,2.482 z"
   id="path314" />
		<path
   style="fill:#00475e"
   d="m 295.633,73.701 c 0,0 -0.01,0.01 -0.023,0.031 -0.073,0.082 -0.286,0.332 -0.508,0.558 -0.027,0.024 -0.05,0.048 -0.077,0.072 -0.096,0.096 -0.197,0.182 -0.28,0.244 -0.772,0.562 -1.741,0.841 -2.753,0.721 -9.665,-1.706 -12.303,-1.44 -14.872,-1.908 l -0.172,-2.015 -0.099,-1.174 -0.455,-5.308 v -0.003 c 1.759,0.142 6.194,0.711 11.679,1.929 v 0.003 c 3.339,0.74 6.146,1.556 6.921,2.291 0.021,0.02 0.152,0.873 0.291,1.834 0.181,1.251 0.372,2.69 0.348,2.725 z"
   id="path315" />
		<path
   style="fill:#f2bf89"
   d="m 298.77,29.49 c 1.339,0.877 2.449,0.799 2.449,0.799 l 2.013,-6.7 c -0.432,-0.116 -2.711,-1.199 -4.399,-2.034 l -1.876,4.252 -0.264,0.591 c -0.026,0.01 -0.052,0.021 -0.075,0.04 -0.484,0.286 1.144,2.406 2.152,3.052 z"
   id="path316" />
		<g
   id="g319">
			<path
   style="fill:#ffc990"
   d="m 307.283,21.718 c -0.039,0.327 -0.1,0.666 -0.194,1.021 -0.2,0.288 -0.411,0.522 -0.411,0.522 l 0.039,0.294 0.172,1.315 c 0.028,0.338 -0.255,0.622 -0.594,0.599 h -0.117 l -0.4,-0.006 c -0.011,0.028 -0.022,0.072 -0.039,0.128 -0.044,0.183 -0.122,0.494 -0.194,0.816 v 0.006 c -0.089,0.377 -0.178,0.782 -0.239,1.032 -0.033,0.155 -0.055,0.255 -0.055,0.255 -0.133,0.411 -0.4,0.86 -0.749,1.176 -0.366,0.322 -0.827,0.505 -1.343,0.339 l -1.06,-0.35 c -0.039,-0.022 -0.078,-0.039 -0.122,-0.056 -1.204,-0.594 -2.558,-2.564 -1.964,-4.611 0.011,-0.05 0.028,-0.105 0.044,-0.155 -0.022,-0.006 -0.05,-0.017 -0.072,-0.028 0,0 -0.006,-0.005 -0.011,0 -0.089,-0.033 -0.183,-0.056 -0.283,-0.072 -0.805,-0.117 -1.948,0.122 -1.809,-0.577 0.167,-0.877 -0.4,-2.403 -0.161,-3.551 0.805,-2.458 1.948,-3.407 3.124,-3.662 0.083,-0.017 0.155,-0.033 0.239,-0.044 1.115,-0.161 2.236,0.233 3.107,0.488 1.471,0.499 2.697,1.632 3.035,3.391 v 0.006 c 0.102,0.519 0.124,1.091 0.057,1.724 z"
   id="path317" />
			<path
   style="fill:#b17f4a"
   d="m 297.653,24.548 c 3.157,1.716 2.386,-2.692 2.386,-2.692 0,0 0.797,0.24 0.971,0.659 0.414,0.163 0.677,0.231 1.019,0.366 1.433,-4.186 0.811,-5.241 5.201,-2.89 1.19,-0.692 1.606,-2.611 -3.36,-4.135 -2.488,-0.764 -5.087,0.049 -6.03,2.475 -0.549,1.409 -0.931,2.176 -0.187,6.217 z"
   id="path318" />
			<path
   style="fill:#ffc990"
   d="m 299.372,22.018 c -0.225,0.783 0.175,1.877 0.687,2.025 0.512,0.147 0.638,-0.504 0.872,-1.285 0.154,-0.516 0.497,-1.215 -0.017,-1.54 -0.45,-0.285 -1.211,-0.349 -1.542,0.8 z"
   id="path319" />
		</g>
		<path
   style="fill:#e94e1b"
   d="m 302.367,37.355 c -0.005,0.011 -0.005,0.033 -0.011,0.044 v 0.006 c -0.033,0.549 -0.105,1.271 -0.233,2.114 -0.15,1.054 -0.377,2.303 -0.683,3.64 -0.505,2.242 -1.226,4.744 -2.175,7.008 -0.033,0.083 -0.067,0.161 -0.105,0.239 -1.543,3.612 -3.679,6.598 -6.454,6.986 -1.981,0.283 -4.317,-0.483 -4.328,-0.516 l -1.132,-0.372 c -1.337,-2.442 -2.164,-5.521 -0.793,-7.647 0.078,-0.278 0.161,-0.588 0.25,-0.921 1.343,-5.011 4.045,-15.848 6.026,-18.312 0.022,-0.022 0.039,-0.044 0.055,-0.067 0.96,-1.193 1.987,-2.136 3.102,-2.758 0.2,-0.111 0.621,-0.316 0.76,-0.383 0.017,-0.006 0.028,-0.011 0.033,-0.011 0.006,-0.006 0.011,-0.006 0.011,-0.006 0.577,0.899 1.565,1.903 2.503,2.664 0.827,0.677 1.615,1.165 2.02,1.226 0.006,0 0.006,0 0.006,-0.006 0,0 0.15,0.333 0.35,0.899 0.426,1.256 1.081,3.676 0.798,6.173 z"
   id="path320" />
		<path
   style="fill:#fdda99"
   d="m 303.493,27.251 c 0.025,0.262 0.242,0.555 0.496,0.62 0.255,0.068 0.609,0.068 0.762,-0.145 0.075,-0.108 0.069,-0.338 0.198,-0.365 0.066,-0.012 0.275,0.054 0.361,0.084 0.056,-0.251 0.148,-0.652 0.235,-1.032 V 26.41 c -0.076,-0.019 -0.155,-0.032 -0.23,-0.043 -0.28,-0.043 -0.562,-0.078 -0.841,-0.052 -0.282,0.026 -0.563,0.119 -0.773,0.306 -0.188,0.165 -0.236,0.38 -0.208,0.63 z"
   id="path321" />
		<path
   style="fill:#3c3c3b"
   d="m 312.363,75.337 c -0.908,0.531 -2.724,1.082 -4.228,1.071 l -1.25,-0.008 -3.203,-0.013 c -0.051,-0.003 -0.101,-0.002 -0.152,-0.001 l -0.159,0.006 -0.429,0.02 -0.169,0.009 -1.199,0.045 c -0.236,0.007 -0.477,-0.006 -0.714,-0.057 l -0.817,-0.16 c -0.064,-0.009 -0.119,-0.052 -0.154,-0.106 -0.073,-0.11 -0.014,-1.162 0.069,-2.133 0.063,-0.758 0.143,-1.465 0.192,-1.635 l 0.006,-0.031 c 0.026,-0.105 0.206,-0.436 0.345,-0.884 0.09,-0.309 0.162,-0.671 0.143,-1.053 -0.001,-0.057 -0.008,-0.111 -0.013,-0.169 l 1.198,-0.086 3.031,-0.211 c 0.078,0.208 0.178,0.389 0.296,0.556 0.421,0.585 1.072,0.95 1.699,1.306 0.065,0.04 0.143,0.072 0.235,0.105 h 0.003 c 0.479,0.172 1.258,0.265 2.034,0.473 0.187,0.055 0.367,0.103 0.54,0.144 1.007,0.252 1.841,0.405 2.276,0.814 0.44,0.291 0.416,0.933 0.543,1.701 0.033,0.119 -0.023,0.238 -0.123,0.297 z"
   id="path322" />
		<path
   style="fill:#006080"
   d="m 308.848,53.752 c -0.022,0.338 -1.371,9.485 -1.754,18.157 h -0.003 l -4.723,1.399 -2.409,0.712 v -0.01 c -1.022,-5.945 -0.435,-12.313 0.214,-16.515 0.111,-0.738 0.225,-1.409 0.335,-1.999 0.306,-1.643 0.558,-2.664 0.583,-2.762 0.13,-0.576 0.385,-1.101 0.74,-1.538 0.656,-0.834 1.642,-1.38 2.742,-1.46 0.219,-0.02 0.446,-0.017 0.672,0.003 l 0.074,0.009 c 1.042,0.096 1.948,0.592 2.581,1.323 0.323,0.37 0.576,0.802 0.736,1.276 0.021,0.064 0.042,0.128 0.06,0.195 0.116,0.383 0.166,0.795 0.152,1.21 z"
   id="path323" />
		<path
   style="fill:#006080"
   d="m 304.934,57.145 h -0.028 c 0,0 -0.988,0.072 -2.453,0.178 -0.677,0.056 -1.454,0.111 -2.281,0.172 -1.404,0.105 -2.952,0.222 -4.4,0.327 -2.88,0.211 -5.36,0.388 -5.46,0.377 -1.975,-0.15 -3.224,-0.871 -3.973,-1.87 -0.938,-1.249 -1.093,-2.93 -0.932,-4.456 v -0.006 c 0.044,-0.394 0.105,-0.777 0.189,-1.143 0.322,-1.52 0.877,-2.691 1.104,-2.786 l 0.005,-0.006 0.022,0.006 5.766,1.537 c 3.08,-0.094 5.394,-0.172 7.142,-0.228 6.037,-0.2 5.266,-0.189 5.71,-0.122 1.598,0.244 2.902,1.443 3.269,3.024 0.039,0.128 0.066,0.261 0.083,0.389 0.36,2.194 -1.299,4.485 -3.763,4.607 z"
   id="path324" />
		<path
   style="opacity:0.1;fill:#1d1d1b"
   d="m 301.831,70.154 c -0.375,-3.4 -0.2,-7.198 0.365,-11.167 0,0 0.733,-4.244 0.734,-4.25 -0.005,0.002 -0.01,0.003 -0.014,0.005 l -0.129,-0.161 -2.834,1.045 c -1.379,0.324 -2.796,0.54 -4.254,0.642 -0.179,0.013 -0.358,0.026 -0.54,0.032 h -0.003 c -1.904,0.103 -3.868,0.021 -5.889,-0.222 -1.328,-0.477 -2.365,-1.353 -2.965,-2.824 -0.266,-0.638 -0.443,-1.389 -0.531,-2.269 l -0.176,-0.258 -0.185,1.142 v 0.003 c -0.163,1.526 -0.006,3.207 0.932,4.456 0.06,0.624 0.13,1.245 0.207,1.859 3.073,2.349 5.567,6.191 7.512,10.391 0.381,0.829 0.737,1.671 1.077,2.517 -1.207,1.039 -3.162,1.493 -5.622,1.504 -3.77,0.023 -6.215,-0.525 -11.359,-1.991 -0.434,-0.122 -0.869,-0.247 -1.306,-0.379 -1.643,-0.485 -3.3,-1.018 -4.94,-1.571 l -0.741,1.282 -0.626,1.084 c -0.758,1.299 -1.179,3.15 -1.17,4.204 0.002,0.115 0.078,0.218 0.196,0.25 0.731,0.273 1.276,0.613 1.746,0.376 0.572,-0.174 1.116,-0.824 1.838,-1.575 0.12,-0.127 0.253,-0.261 0.389,-0.394 0.672,-0.679 1.208,-1.437 1.634,-1.687 0.559,-0.333 1.139,-0.676 1.772,-0.794 l 0.172,2.014 c 2.568,0.468 5.206,0.202 14.872,1.908 1.012,0.12 1.981,-0.158 2.753,-0.721 0.083,-0.062 0.184,-0.148 0.28,-0.244 0.027,-0.024 0.05,-0.048 0.077,-0.072 0.187,-0.165 0.359,-0.353 0.508,-0.558 0.013,-0.021 0.023,-0.031 0.023,-0.031 0.116,-0.157 0.218,-0.324 0.314,-0.502 0.367,-0.718 0.527,-1.572 0.382,-2.482 -0.021,-0.469 -0.041,-0.908 -0.057,-1.317 0,0.001 -0.001,0.003 -0.001,0.004 -0.258,-5.831 -0.242,-5.979 -0.497,-11.582 1.448,-0.106 2.997,-0.221 4.401,-0.326 -0.65,4.203 -1.236,10.571 -0.214,16.515 -0.083,0.971 -0.142,2.023 -0.069,2.133 0.035,0.053 0.089,0.097 0.154,0.106 l 0.817,0.16 c 0.237,0.051 0.477,0.064 0.714,0.057 l 1.199,-0.045 0.169,-0.009 0.429,-0.02 c -0.413,-0.964 -0.746,-1.992 -1.003,-3.083 -0.245,-1.004 -0.423,-2.058 -0.541,-3.155 z"
   id="path325" />
		<path
   style="opacity:0.1;fill:#1d1d1b"
   d="m 297.208,27.108 c 1.707,-0.009 2.116,-1.568 2.673,-2.964 l 3.448,3.767 -1.056,6.153 c -1.157,-2.807 -3.628,-5.28 -5.065,-6.956 z"
   id="path326" />
		<path
   style="opacity:0.1;fill:#1d1d1b"
   d="m 306.312,24.22 -0.078,0.832 -0.056,0.416 -0.4,-0.006 c -0.011,0.028 -0.022,0.072 -0.039,0.128 -0.044,0.183 -0.122,0.494 -0.194,0.816 v 0.006 c -0.089,0.377 -0.178,0.782 -0.239,1.032 -0.033,0.155 -0.055,0.255 -0.055,0.255 -0.133,0.411 -0.4,0.86 -0.749,1.176 h -1.881 l 0.006,-1.226 c -0.117,-0.144 -0.211,-0.305 -0.283,-0.472 -0.455,-0.738 -1.132,-1.321 -1.62,-1.659 -0.649,-0.461 -0.627,-0.877 -0.327,-1.027 l -0.383,-0.294 -0.072,-0.055 -0.25,-0.2 -0.311,-0.239 c -0.189,-0.15 -0.228,-0.427 -0.078,-0.616 l 0.066,-0.083 0.705,-0.916 0.139,-0.172 0.588,-0.76 0.033,-0.044 c 0.15,-0.189 0.427,-0.228 0.621,-0.078 l 0.877,0.683 c 0.028,-0.044 0.067,-0.083 0.105,-0.117 0.094,-0.083 0.211,-0.133 0.344,-0.128 h 0.011 c 0.294,0.006 0.522,0.25 0.516,0.544 0,0 0.289,-0.194 0.677,-0.039 0.327,0.128 0.522,0.427 0.472,0.71 -0.005,0 0.289,-0.266 0.71,-0.017 0.161,0.094 0.449,0.422 0.333,0.816 0,0 0.239,-0.056 0.383,0.017 0.207,0.101 0.457,0.406 0.429,0.717 z"
   id="path327" />
		<path
   style="opacity:0.1;fill:#1d1d1b"
   d="m 305.345,49.127 c -0.033,0.072 -4.855,0.966 -5.96,1.215 -0.189,0.044 -0.377,0.072 -0.572,0.078 l -5.738,0.233 c -1.176,0.05 -2.347,-0.255 -3.352,-0.871 l -3.024,-1.842 h 0.028 l 5.799,0.05 c 4.85,0.305 5.416,-0.988 5.993,-2.503 0.888,-2.314 0.544,-4.367 -0.999,-6.304 l -4.2,-5.283 8.801,5.621 c -0.15,1.054 -0.377,2.303 -0.682,3.64 -0.438,1.942 -1.038,4.079 -1.803,6.087 6.036,-0.199 5.265,-0.188 5.709,-0.121 z"
   id="path328" />
		<g
   id="g337">
			<path
   style="fill:#3c3c3b"
   d="m 306.91,26.082 -1.529,1.971 c -0.15,0.193 -0.466,0.197 -0.707,0.01 l -5.402,-4.19 c -0.241,-0.187 -0.316,-0.495 -0.166,-0.688 l 1.529,-1.971 c 0.15,-0.193 0.466,-0.197 0.707,-0.01 l 5.402,4.19 c 0.241,0.187 0.315,0.495 0.166,0.688 z"
   id="path329" />
			<g
   id="g334">
				<path
   style="fill:#ffc990"
   d="m 302.726,27.768 c -0.201,-0.026 -0.267,-0.3 -0.464,-0.315 -0.452,-0.831 -1.21,-1.467 -1.737,-1.838 -1.154,-0.81 -0.203,-1.483 0.678,-0.823 0.634,0.475 2.01,1.981 2.619,3.014 -0.366,0 -0.733,0.009 -1.096,-0.038 z"
   id="path330" />
				<path
   style="fill:#ffc990"
   d="m 302.54,25.918 h -0.011 c -0.293,-0.008 -0.523,-0.252 -0.515,-0.545 l 0.025,-3.287 c 0.008,-0.293 0.252,-0.523 0.545,-0.515 h 0.011 c 0.293,0.008 0.523,0.252 0.515,0.545 l -0.025,3.287 c -0.008,0.292 -0.252,0.523 -0.545,0.515 z"
   id="path331" />
				<path
   style="fill:#ffc990"
   d="m 303.04,27.127 -0.011,-0.002 c -0.288,-0.051 -0.48,-0.326 -0.429,-0.615 l 0.601,-3.908 c 0.051,-0.288 0.326,-0.481 0.615,-0.429 l 0.011,0.002 c 0.288,0.051 0.48,0.326 0.429,0.615 l -0.601,3.908 c -0.051,0.288 -0.326,0.48 -0.615,0.429 z"
   id="path332" />
				<path
   style="fill:#ffc990"
   d="m 303.663,27.264 -0.01,-0.003 c -0.281,-0.083 -0.441,-0.378 -0.358,-0.659 l 1.013,-3.475 c 0.083,-0.281 0.378,-0.441 0.659,-0.358 l 0.01,0.003 c 0.281,0.083 0.441,0.378 0.358,0.659 l -0.938,3.487 c -0.083,0.282 -0.454,0.43 -0.734,0.346 z"
   id="path333" />
				<path
   style="fill:#ffc990"
   d="m 301.998,25.012 -0.014,1.354 c -0.051,0.837 0.45,1.902 1.722,2.095 0.861,0.024 1.874,-0.604 2.115,-1.652 l 0.212,-1.659 v 0 l 0.078,-0.83 c 0.029,-0.311 -0.16,-0.614 -0.519,-0.622 h -0.009 c -0.26,-0.007 -0.473,0.411 -0.48,0.671 l 0.005,-0.173 c 0.008,-0.293 -0.223,-0.537 -0.515,-0.545 h -0.011 c -0.293,-0.008 -0.537,0.222 -0.545,0.515 l 0.005,-0.16 c 0.008,-0.293 -0.223,-0.537 -0.516,-0.545 h -0.011 c -0.293,-0.008 -0.474,0.225 -0.482,0.518 0.008,-0.293 -0.081,-0.55 -0.54,-0.55 -0.513,0.001 -0.495,1.583 -0.495,1.583 z"
   id="path334" />
			</g>
			<path
   style="fill:#ffc990"
   d="m 302.376,38.227 c -0.604,4.772 5.26,4.995 4.889,0.186 l -2,-10.915 -2.835,0.048 z"
   id="path335" />
			<path
   style="fill:#e94e1b"
   d="m 293.894,34.628 3.923,3.597 4.263,3.656 0.539,-6.664 -5.071,-5.197 c -2.53,-2.47 -6.625,1.554 -3.654,4.608 z"
   id="path336" />
			<path
   style="fill:#ba3e16"
   d="m 305.546,41.739 c 0.291,0.737 -3.375,0.853 -4.02,-0.302 -0.582,-2.399 -0.558,-4.959 -0.02,-7.362 0,0 0.943,-0.199 0.852,0.159 0.909,2.781 1.703,5.671 3.188,7.505 z"
   id="path337" />
		</g>
	</g>
	<path
   style="opacity:0.1;fill:#131313"
   d="m 253.086,77.039 c 0,0.919 0.614,1.663 1.372,1.663 h 101.174 c 0.758,0 1.372,-0.745 1.372,-1.663 v 0 c 0,-0.919 -0.614,-1.663 -1.372,-1.663 H 254.458 c -0.757,0 -1.372,0.744 -1.372,1.663 z"
   id="path338" />
	<g
   id="g361">
		<g
   id="g341">
			<path
   style="fill:#ffc990"
   d="m 351.963,76.538 c 0.035,-0.35 -0.363,-0.437 -0.605,-0.42 -0.426,0.031 -1.146,-0.033 -1.938,-0.078 -0.18,0.028 -0.342,0.013 -0.523,0.033 -0.151,0.016 -0.335,0.037 -0.505,0.081 -0.15,0.117 -0.254,0.217 -0.429,0.376 0.982,0.303 2.523,0.454 3.062,0.374 0.255,-0.036 0.907,-0.053 0.938,-0.366 z"
   id="path339" />
			<path
   style="fill:#ffc990"
   d="M 355.32,76.795 V 76.8 c 0,0.133 -0.105,0.244 -0.233,0.261 -0.017,0.006 -0.028,0.006 -0.044,0.006 l -3.834,-0.028 -3.468,-0.011 h -0.089 v -0.006 l 0.05,-0.694 0.033,-0.438 0.067,-0.882 c 0,0.022 0.061,0.033 0.161,0.022 0.161,-0.006 0.416,-0.055 0.721,-0.111 0.738,-0.144 1.742,-0.372 2.175,-0.416 0.033,-0.006 0.067,-0.006 0.105,-0.006 0.105,0 0.216,0.022 0.316,0.061 l 0.705,0.277 0.3,0.117 0.966,0.383 c 0.061,0.022 0.122,0.056 0.183,0.094 l 1.121,0.727 0.388,0.25 0.255,0.166 c 0.077,0.051 0.122,0.134 0.122,0.223 z"
   id="path340" />
			<path
   style="fill:#ffc990"
   d="m 347.962,75.03 -0.144,1.299 -0.078,0.694 v 0.006 l -0.006,0.011 c 0,0 -3.085,0.017 -6.326,0.028 -3.396,0.011 -6.959,0.011 -7.303,-0.022 0,0 0,-0.006 -0.006,-0.006 0,-0.006 0,-0.006 -0.005,-0.011 -0.028,-0.044 -0.05,-0.094 -0.067,-0.144 -0.1,-0.25 -0.072,-0.522 0.055,-0.794 l 0.006,-0.011 c 0.022,-0.044 0.044,-0.089 0.072,-0.133 0.022,-0.039 0.05,-0.083 0.078,-0.122 0.122,-0.178 0.283,-0.361 0.472,-0.538 0.144,-0.133 0.305,-0.266 0.483,-0.394 h 0.006 c 0.3,-0.222 0.644,-0.433 1.004,-0.622 1.387,-0.727 3.074,-1.165 4.029,-0.838 l 1.31,0.272 0.488,0.1 0.155,0.033 0.189,0.039 0.727,0.15 0.499,0.105 0.694,0.139 0.954,0.2 1.032,0.211 z"
   id="path341" />
		</g>
		<polygon
   style="fill:#e6b582"
   points="331.014,76.077 331.796,69.744 336.204,70.374 336.204,76.077 "
   id="polygon341" />
		<path
   style="fill:#f2bf89"
   d="m 334.436,75.064 c 0.101,0.087 0.212,0.174 0.338,0.266 0.259,0.194 0.573,0.406 0.948,0.657 0.468,0.312 1.168,0.553 2.051,0.733 -0.009,0.023 -0.017,0.046 -0.02,0.071 -0.014,0.078 -0.002,0.161 0.03,0.24 0,10e-4 10e-4,10e-4 10e-4,0.002 h 2.732 c -0.003,-0.021 -0.009,-0.042 -0.018,-0.063 l 1.928,-0.019 c 1.444,-0.014 2.628,-1.085 2.823,-2.472 0.022,-0.141 0.03,-0.287 0.03,-0.435 l -0.024,-2.749 c -0.017,-1.591 -1.318,-2.867 -2.91,-2.853 l -1.928,0.019 c 0.029,-0.081 0.039,-0.163 0.023,-0.243 -0.072,-0.422 -0.755,-0.487 -1.519,-0.356 -0.619,0.107 -1.096,0.252 -1.22,0.59 -0.032,0.079 -0.04,0.161 -0.026,0.241 0.005,0.023 0.015,0.048 0.022,0.07 -0.879,0.197 -1.573,0.45 -2.038,0.772 -0.371,0.26 -0.68,0.478 -0.938,0.675 -0.123,0.095 -0.231,0.183 -0.331,0.271 -0.7,0.616 -0.868,1.122 -0.858,2.28 0.001,0.005 0,0.011 0,0.016 l 0.001,0.003 c 0,0.003 -0.002,0.003 -0.001,0.006 0.001,0.005 0.002,0.01 0,0.016 0.008,0.767 0.09,1.249 0.353,1.659 0.134,0.211 0.312,0.403 0.551,0.603 z"
   id="path342" />
		<path
   style="fill:#61483e"
   d="m 343.234,70.504 c -0.031,0.127 -0.057,0.247 -0.082,0.36 -0.12,0.547 -0.178,0.985 -0.206,1.612 -0.004,0.071 -0.006,0.143 -0.009,0.219 0.013,0.198 0.028,0.375 0.046,0.543 0.037,0.354 0.087,0.655 0.16,0.975 0.023,0.102 0.048,0.21 0.078,0.319 0.027,0.107 0.058,0.221 0.09,0.341 0.029,0.101 0.052,0.204 0.067,0.305 0.036,0.215 0.03,0.425 -0.067,0.606 -0.251,0.464 -1.115,0.724 -3.491,0.344 l 0.003,0.396 c 0.401,0.141 0.612,0.31 0.675,0.45 0.012,0.022 0.016,0.043 0.018,0.063 h 2.152 c 1.673,0 1.9,-0.161 2.048,-0.272 0.987,-0.747 1.602,-1.825 1.83,-2.983 h 0.003 c 0.381,-1.899 -0.264,-4.011 -1.979,-5.212 -1.046,-0.734 -2.006,-0.509 -2.941,-0.352 -0.943,0.159 -1.211,0.248 -1.211,0.248 0.027,0.147 -0.175,0.338 -0.664,0.515 l 0.003,0.385 c 3.651,-0.711 3.689,0.267 3.477,1.138 z"
   id="path343" />
		<path
   style="fill:#61483e"
   d="m 344.865,72.302 c -0.061,0.707 -0.573,1.295 -1.132,1.733 -0.559,0.438 -1.431,0.723 -1.917,1.24 0.24,-1.321 0.733,-2.62 1.483,-3.733 0.202,-0.299 0.483,-0.599 0.844,-0.606 0.401,-0.008 0.725,0.374 0.791,0.769 0.066,0.396 -0.06,0.796 -0.195,1.174 z"
   id="path344" />
		<path
   style="fill:#61483e"
   d="m 344.732,70.932 c -0.03,0.551 -0.357,1.048 -0.762,1.423 -0.405,0.375 -0.888,0.652 -1.341,0.968 -0.453,0.315 -0.889,0.685 -1.14,1.176 -0.033,-1.16 0.375,-2.327 1.123,-3.214 0.349,-0.415 0.792,-0.815 0.85,-1.355 0.013,-0.121 0.006,-0.244 0.036,-0.362 0.031,-0.117 0.113,-0.233 0.232,-0.255 0.199,-0.037 0.34,0.183 0.42,0.368 0.248,0.572 0.496,1.144 0.744,1.716 z"
   id="path345" />
		<path
   style="fill:#2e2e2d"
   d="m 266.152,69.681 c -0.028,0.222 -0.1,0.477 -0.205,0.755 -0.4,1.049 -1.304,2.364 -2.508,3.185 -0.15,0.105 -0.305,0.205 -0.466,0.283 -0.122,0.078 -0.25,0.139 -0.383,0.194 -0.361,0.155 -0.727,0.366 -1.077,0.599 -1.188,0.799 -2.247,1.898 -2.769,2.114 -0.261,0.105 -0.538,0.117 -0.81,0.078 -0.427,-0.067 -0.821,-0.272 -1.071,-0.427 -0.172,-0.105 -0.283,-0.189 -0.283,-0.189 l 1.043,-1.953 2.314,-4.323 1.298,-0.76 -0.494,-0.622 0.316,-0.566 0.633,-1.127 1.304,0.616 c 0.033,0.017 0.061,0.028 0.089,0.044 0.505,0.239 0.943,0.466 1.315,0.688 0.316,0.178 0.583,0.35 0.81,0.505 0.233,0.161 0.427,0.305 0.572,0.433 0.261,0.229 0.383,0.395 0.372,0.473 z"
   id="path346" />
		<path
   style="fill:#4f5050"
   d="m 282.02,75.931 0.486,-7.558 c 0.16,-0.012 16.311,-1.124 16.832,-1.05 l 1.767,7.709 c -1.615,0.275 -3.096,0.182 -4.496,0.339 -5.771,0.646 -11.083,0.489 -14.589,0.56 z"
   id="path347" />
		<path
   style="fill:#4f5050"
   d="m 262.01,73.495 c -0.576,-1.898 0.861,-5.921 0.861,-5.921 l 0.072,0.002 c 8.911,0.217 13.813,0.481 19.562,0.797 l 0.763,1.744 -1.249,5.815 C 276.293,74.703 262.31,73.52 262.01,73.495 Z"
   id="path348" />
		<path
   style="fill:#61483e"
   d="m 344.247,73.447 c 0.217,0.509 0.034,1.131 -0.356,1.524 -0.39,0.393 -0.949,0.58 -1.501,0.622 -0.552,0.042 -1.104,-0.048 -1.65,-0.138 0.621,-0.321 1.154,-0.811 1.526,-1.403 0.165,-0.263 0.3,-0.547 0.506,-0.779 0.206,-0.232 0.505,-0.41 0.813,-0.373 0.298,0.035 0.545,0.271 0.662,0.547 z"
   id="path349" />
		<path
   style="fill:#565858"
   d="m 305.467,76.828 c -0.366,0.017 -0.755,0.022 -1.149,0.017 -0.006,0 -0.011,0 -0.011,0 -0.411,-0.005 -0.827,-0.028 -1.254,-0.055 -0.083,-0.006 -0.172,-0.011 -0.261,-0.022 -2.308,-0.183 -4.794,-0.649 -6.687,-0.999 H 296.1 c -0.449,-0.083 -0.866,-0.161 -1.237,-0.227 -0.039,-0.006 -0.072,-0.011 -0.105,-0.017 V 68.41 c 0.216,-0.194 0.449,-0.372 0.699,-0.527 0.233,-0.155 0.472,-0.294 0.727,-0.411 2.58,-1.254 6.132,-1.06 8.041,-0.15 0.139,0.971 0.355,1.975 0.577,2.969 0.1,0.455 0.2,0.905 0.3,1.354 0.205,0.977 0.388,1.926 0.472,2.819 0.076,0.855 0.059,1.654 -0.107,2.364 z"
   id="path350" />
		<path
   style="fill:#3c3c3b"
   d="m 264.371,71.212 c -0.139,0.178 -0.178,0.455 -0.327,0.705 -0.51,0.866 -0.638,1.304 -1.343,1.637 -0.116,0.055 -0.244,0.105 -0.394,0.155 -0.183,0.061 -0.4,0.122 -0.655,0.183 -0.05,0.011 -0.094,0.022 -0.144,0.039 -1.276,0.366 -3.357,1.765 -4.645,2.53 -0.461,0.277 -0.816,0.472 -0.999,0.516 -0.277,0.067 -0.555,0.028 -0.81,-0.055 -0.694,-0.239 -0.616,-0.361 -0.616,-0.361 0.25,-0.616 0.549,-1.237 0.888,-1.853 0.555,-1.021 1.215,-2.048 1.953,-3.069 0.599,-0.766 1.959,-1.548 1.959,-1.548 l -0.289,-0.572 1.498,-1.781 c 0.2,0.089 0.405,0.194 0.61,0.311 0.4,0.233 0.81,0.51 1.199,0.805 0.061,0.044 0.117,0.089 0.178,0.133 1.187,0.921 2.142,1.97 1.937,2.225 z"
   id="path351" />
		<path
   style="fill:#006080"
   d="m 331.797,74.508 c -0.205,0.477 -0.461,0.888 -0.738,1.215 -0.017,0.028 -0.039,0.05 -0.067,0.078 0,0.006 -0.006,0.011 -0.017,0.017 v 0.006 c -0.327,0.366 -0.671,0.599 -0.982,0.655 -1.176,0.211 -3.546,0.339 -6.393,0.416 -1.01,0.028 -2.075,0.05 -3.174,0.061 -0.111,0.006 -0.222,0.006 -0.333,0.006 -7.325,0.1 -15.737,-0.044 -15.782,-0.078 0,-0.011 0,-0.028 -0.006,-0.039 -0.072,-0.738 -0.083,-1.531 -0.044,-2.347 0.056,-1.415 0.261,-2.891 0.538,-4.206 0.244,-1.165 0.549,-2.203 0.871,-2.969 3.801,0 9.333,-1.842 13.074,-1.87 0.433,-0.006 0.871,-0.011 1.298,-0.011 6.614,0 9.916,1.665 11.342,3.707 0.155,0.222 0.289,0.449 0.4,0.677 0.807,1.619 0.59,3.378 0.013,4.682 z"
   id="path352" />
		<path
   style="fill:#565858"
   d="m 300.595,75.43 c -1.615,0.272 -3.091,0.178 -4.489,0.338 H 296.1 c -5.771,0.644 -11.081,0.488 -14.589,0.561 l 0.033,-0.499 0.133,-2.081 0.305,-4.817 0.011,-0.161 c 0.017,0 0.189,-0.017 0.488,-0.033 0.056,-0.005 0.111,-0.011 0.177,-0.017 2.12,-0.144 8.818,-0.605 12.796,-0.838 1.704,-0.105 2.908,-0.166 3.047,-0.144 l 1.898,6.986 0.111,0.394 z"
   id="path353" />
		<path
   style="fill:#565858"
   d="m 282.76,70.513 -0.56,2.597 -0.161,0.76 -0.422,1.976 -0.105,0.483 c -5.777,-0.971 -19.516,-0.533 -19.816,-0.544 -0.106,-0.294 -0.161,-0.666 -0.183,-1.088 -0.011,-0.239 -0.017,-0.499 -0.005,-0.766 0,-0.166 0.011,-0.338 0.022,-0.505 0.133,-2.02 0.671,-4.334 0.727,-4.572 0.006,-0.017 0.006,-0.022 0.006,-0.022 l 0.072,-0.006 c 0.05,0 0.1,0 0.15,-0.006 0.954,-0.017 1.859,-0.033 2.725,-0.044 7.158,-0.105 11.603,-0.028 16.714,0.028 l 0.061,0.128 0.427,0.871 z"
   id="path354" />
		<path
   style="fill:#00475e"
   d="m 306.222,67.322 c -0.005,0.017 -0.011,0.033 -0.017,0.044 -0.105,0.3 -0.205,0.599 -0.3,0.905 -0.033,0.105 -0.067,0.216 -0.094,0.322 -0.155,0.516 -0.289,1.043 -0.411,1.581 -0.111,0.483 -0.211,0.971 -0.3,1.47 -0.178,0.927 -0.327,1.876 -0.466,2.841 -0.105,0.727 -0.2,1.459 -0.3,2.197 -0.005,0.055 -0.011,0.105 -0.017,0.161 -0.006,0.011 -0.006,0.028 -0.006,0.039 l -1.26,-0.094 -0.255,-0.017 -0.005,-0.006 c -0.028,-0.011 -0.05,-0.072 -0.061,-0.189 -0.028,-0.322 0.022,-1.021 0.122,-1.898 0.155,-1.421 0.433,-3.296 0.71,-4.8 0.105,-0.583 0.205,-1.11 0.305,-1.532 0.055,-0.25 0.111,-0.461 0.161,-0.627 0.078,-0.255 0.144,-0.399 0.194,-0.399 h 2 z"
   id="path355" />
		<path
   style="fill:#006080"
   d="m 332.332,76.318 -1.265,-0.089 c -0.572,-2.537 -0.522,-4.918 0.328,-7.098 l 2.371,0.895 c -1.366,1.274 -1.7,4.003 -1.434,6.292 z"
   id="path356" />
		<path
   style="fill:#00475e"
   d="m 330.704,72.4 c -0.427,0.583 -1.049,1.11 -1.637,1.543 -0.333,0.239 -0.649,0.444 -0.921,0.61 -0.538,0.333 -1.132,0.66 -1.709,0.96 -1.204,0.638 -2.353,1.165 -2.836,1.382 -0.155,0.067 -0.239,0.105 -0.239,0.105 l -2.403,0.055 -0.616,0.017 c -0.089,-0.022 -0.172,-0.055 -0.25,-0.111 -0.932,-0.555 -0.888,-2.808 1.054,-4.251 1.138,-0.843 2.647,-2.209 4.19,-3.18 0.005,-0.006 0.005,-0.006 0.011,-0.011 2.142,-1.343 4.345,-1.931 5.693,0.694 0.011,0.017 0.017,0.033 0.028,0.05 0.368,0.727 0.129,1.465 -0.365,2.137 z"
   id="path357" />
		<g
   id="g360">
			<path
   style="fill:#ffc990"
   d="m 339.038,74.551 c -0.046,-0.349 -0.452,-0.343 -0.685,-0.271 -0.408,0.127 -1.124,0.229 -1.905,0.365 -0.169,0.068 -0.33,0.091 -0.502,0.151 -0.143,0.05 -0.318,0.112 -0.473,0.194 -0.12,0.148 -0.198,0.269 -0.332,0.464 1.025,0.072 2.56,-0.131 3.067,-0.332 0.239,-0.095 0.87,-0.26 0.83,-0.571 z"
   id="path358" />
			<path
   style="fill:#ffc990"
   d="M 341.683,76.796 V 76.8 c -10e-4,0.136 -0.102,0.245 -0.233,0.262 -0.013,0.002 -0.029,0.002 -0.044,0.002 l -3.834,-0.024 -3.554,-0.012 v -0.004 l 0.083,-1.133 0.064,-0.885 c 0,0.026 0.059,0.033 0.162,0.027 0.158,-0.01 0.417,-0.056 0.722,-0.114 0.739,-0.142 1.742,-0.369 2.174,-0.416 0.035,-0.004 0.068,-0.006 0.103,-0.006 0.108,0 0.217,0.023 0.318,0.062 l 0.707,0.279 0.298,0.117 0.963,0.378 c 0.066,0.026 0.127,0.057 0.184,0.097 l 1.124,0.727 0.641,0.414 c 0.076,0.049 0.122,0.135 0.122,0.225 z"
   id="path359" />
			<path
   style="fill:#ffc990"
   d="m 334.328,75.03 -0.089,0.794 -0.011,0.128 -0.017,0.128 -0.105,0.943 v 0.006 L 334.1,77.04 c 0,0 -10.649,0.061 -13.14,0.017 -0.255,0 -0.427,-0.006 -0.488,-0.011 -0.017,-0.028 -0.033,-0.056 -0.044,-0.089 -0.422,-0.838 0.655,-1.892 2.075,-2.652 1.398,-0.743 3.13,-1.199 4.095,-0.871 l 2.469,0.51 1.687,0.35 0.472,0.094 0.572,0.122 0.455,0.094 z"
   id="path360" />
		</g>
	</g>
	<path
   style="opacity:0.1;fill:#1d1d1b"
   d="M 355.32,76.795 V 76.8 c 0,0.133 -0.105,0.244 -0.233,0.261 -0.017,0.006 -0.028,0.006 -0.044,0.006 l -3.834,-0.028 -3.468,-0.011 -0.006,0.011 c 0,0 -3.085,0.017 -6.326,0.028 -3.396,0.011 -6.959,0.011 -7.303,-0.022 0,0 0,-0.006 -0.006,-0.006 0,0 -10.649,0.061 -13.14,0.017 l -0.616,0.017 c -0.089,-0.022 -0.172,-0.055 -0.25,-0.111 -7.325,0.1 -15.737,-0.044 -15.782,-0.078 l -1.26,-0.094 -0.255,-0.017 -0.005,-0.006 c -2.308,-0.183 -4.794,-0.649 -6.687,-0.999 H 296.1 c -5.771,0.644 -11.081,0.488 -14.589,0.561 -5.777,-0.971 -19.516,-0.533 -19.816,-0.544 -0.106,-0.294 -0.161,-0.666 -0.183,-1.088 -1.188,0.799 -2.247,1.898 -2.769,2.114 -0.261,0.105 -0.538,0.117 -0.81,0.078 -0.427,-0.067 -0.821,-0.272 -1.071,-0.427 -0.461,0.277 -0.816,0.472 -0.999,0.516 -0.277,0.067 -0.555,0.028 -0.81,-0.055 -0.694,-0.239 -0.616,-0.361 -0.616,-0.361 0.25,-0.616 0.549,-1.237 0.888,-1.853 0.755,-0.1 1.521,-0.233 2.297,-0.388 1.282,-0.255 2.591,-0.572 3.901,-0.893 h 0.006 c 0.244,0.105 0.499,0.2 0.777,0.283 0.211,0.072 0.433,0.139 0.666,0.194 2.647,0.699 6.376,0.893 10.055,0.699 2.863,-0.155 5.693,-0.544 7.963,-1.121 0.228,0.094 0.455,0.183 0.688,0.266 0.122,0.039 0.244,0.083 0.361,0.122 0.039,0.011 0.078,0.022 0.111,0.033 0.1,0.028 0.194,0.055 0.289,0.083 3.779,1.076 8.346,0.644 12.319,-0.322 0.472,-0.111 0.927,-0.228 1.376,-0.355 1.21,0.866 2.653,1.304 4.267,1.415 0.211,0.017 0.427,0.028 0.644,0.028 0.583,0.011 1.188,-0.017 1.809,-0.072 0.449,-0.044 0.916,-0.105 1.387,-0.183 h 0.022 c 0.128,0 0.25,-0.006 0.372,-0.011 0.316,0 0.627,-0.006 0.938,-0.022 7.203,-0.244 13.767,-1.937 19.766,-4.933 0.005,-0.006 0.005,-0.006 0.011,-0.011 0.011,0 0.017,-0.006 0.028,-0.011 -1.72,1.759 -3.102,3.451 -2.874,4.794 0.028,0.189 0.094,0.372 0.194,0.549 -0.044,0.25 1.398,0.472 3.74,0.66 1.276,0.105 2.819,0.205 4.534,0.288 h 0.022 c 0.017,0.006 0.033,0.006 0.055,0.006 0.405,0.022 0.816,0.039 1.243,0.061 0.583,0.028 1.188,0.056 1.803,0.078 h 0.067 c 0.022,0.006 0.044,0.006 0.067,0.006 0.499,0.022 1.01,0.039 1.526,0.061 h 0.005 c 0.15,0.006 0.294,0.011 0.444,0.017 1.182,0.039 2.397,0.078 3.618,0.117 h 0.122 c 0.333,0.011 0.666,0.022 1.004,0.028 0.561,0.017 1.126,0.033 1.687,0.044 0.549,0.017 1.099,0.028 1.642,0.039 0.327,0.011 0.655,0.017 0.977,0.028 0.832,0.017 1.648,0.028 2.447,0.044 h 0.117 c 0.122,0.006 0.244,0.006 0.361,0.011 1.321,0.017 2.586,0.039 3.762,0.044 1.088,0.017 2.098,0.022 3.002,0.022 l 0.255,0.166 c 0.077,0.05 0.122,0.133 0.122,0.222 z"
   id="path361" />
	<path
   style="fill:#ededed"
   d="m 310.174,29.862 c -0.13,0.839 -0.946,1.408 -1.821,1.272 -0.875,-0.136 -1.479,-0.927 -1.349,-1.765 0.131,-0.839 0.946,-1.408 1.821,-1.272 0.876,0.137 1.48,0.927 1.349,1.765 z"
   id="path362" />
	<path
   style="fill:#ededed"
   d="m 316.574,28.201 c -0.188,1.207 -1.361,2.026 -2.621,1.83 -1.26,-0.196 -2.129,-1.333 -1.941,-2.54 0.188,-1.207 1.361,-2.026 2.621,-1.83 1.26,0.196 2.129,1.333 1.941,2.54 z"
   id="path363" />
	<path
   style="fill:#ededed"
   d="m 329.071,21.908 c -0.547,3.512 -4.184,5.863 -8.124,5.25 -3.94,-0.613 -6.691,-3.958 -6.145,-7.47 0.547,-3.513 4.184,-5.863 8.124,-5.25 3.94,0.613 6.691,3.958 6.145,7.47 z"
   id="path364" />
	<g
   id="g371">
		<g
   id="g367">
			<path
   style="fill:#e94e1b"
   d="m 317.418,22.876 c -0.169,-0.169 -0.252,-0.373 -0.252,-0.614 v -0.579 h 1.156 v 0.579 h 0.578 v -0.868 h -0.867 c -0.241,0 -0.445,-0.085 -0.615,-0.253 -0.169,-0.169 -0.252,-0.373 -0.252,-0.615 V 19.37 c 0,-0.241 0.084,-0.445 0.252,-0.614 0.169,-0.168 0.373,-0.253 0.615,-0.253 h 1.156 c 0.241,0 0.445,0.085 0.615,0.253 0.169,0.169 0.253,0.373 0.253,0.614 v 2.892 c 0,0.241 -0.084,0.445 -0.253,0.614 -0.169,0.169 -0.373,0.253 -0.615,0.253 h -1.156 c -0.242,0 -0.446,-0.085 -0.615,-0.253 z m 1.481,-3.506 h -0.578 v 1.156 h 0.578 z"
   id="path365" />
			<path
   style="fill:#e94e1b"
   d="m 320.924,22.262 h 0.578 V 19.66 h -0.578 v -0.29 l 0.868,-0.867 h 0.867 v 3.759 h 0.578 v 0.867 h -2.313 z"
   id="path366" />
			<path
   style="fill:#e94e1b"
   d="m 324.395,22.262 h 0.578 V 19.66 h -0.578 v -0.29 l 0.867,-0.867 h 0.867 v 3.759 h 0.578 v 0.867 h -2.313 v -0.867 z"
   id="path367" />
		</g>
		<g
   id="g370">
			<path
   style="fill:#e94e1b"
   d="m 317.418,22.876 c -0.169,-0.169 -0.252,-0.373 -0.252,-0.614 v -0.579 h 1.156 v 0.579 h 0.578 v -0.868 h -0.867 c -0.241,0 -0.445,-0.085 -0.615,-0.253 -0.169,-0.169 -0.252,-0.373 -0.252,-0.615 V 19.37 c 0,-0.241 0.084,-0.445 0.252,-0.614 0.169,-0.168 0.373,-0.253 0.615,-0.253 h 1.156 c 0.241,0 0.445,0.085 0.615,0.253 0.169,0.169 0.253,0.373 0.253,0.614 v 2.892 c 0,0.241 -0.084,0.445 -0.253,0.614 -0.169,0.169 -0.373,0.253 -0.615,0.253 h -1.156 c -0.242,0 -0.446,-0.085 -0.615,-0.253 z m 1.481,-3.506 h -0.578 v 1.156 h 0.578 z"
   id="path368" />
			<path
   style="fill:#e94e1b"
   d="m 320.924,22.262 h 0.578 V 19.66 h -0.578 v -0.29 l 0.868,-0.867 h 0.867 v 3.759 h 0.578 v 0.867 h -2.313 z"
   id="path369" />
			<path
   style="fill:#e94e1b"
   d="m 324.395,22.262 h 0.578 V 19.66 h -0.578 v -0.29 l 0.867,-0.867 h 0.867 v 3.759 h 0.578 v 0.867 h -2.313 v -0.867 z"
   id="path370" />
		</g>
	</g>
</g>









</svg>
